<svg width="16" height="16" viewBox="0 0 16 16" fill="none" xmlns="http://www.w3.org/2000/svg">
<path fill-rule="evenodd" clip-rule="evenodd" d="M4.17637 9.29496C4.08566 9.40082 4.02715 9.53044 4.00778 9.66849C3.9884 9.80654 4.00895 9.94725 4.06701 10.074C4.12507 10.2007 4.2182 10.3082 4.3354 10.3837C4.4526 10.4592 4.58896 10.4995 4.72837 10.5H11.2704C11.4098 10.4995 11.5461 10.4592 11.6633 10.3837C11.7805 10.3082 11.8737 10.2007 11.9317 10.074C11.9898 9.94725 12.0103 9.80654 11.991 9.66849C11.9716 9.53044 11.9131 9.40082 11.8224 9.29496L8.79937 5.78596C8.70553 5.67713 8.58934 5.5898 8.45871 5.52992C8.32807 5.47004 8.18607 5.43902 8.04237 5.43896H7.95837C7.81466 5.43902 7.67266 5.47004 7.54203 5.52992C7.4114 5.5898 7.2952 5.67713 7.20137 5.78596L4.17637 9.29496Z" fill="black"/>
</svg>
