<?xml version="1.0" encoding="utf-8"?>
<!-- Generator: Adobe Illustrator 29.5.1, SVG Export Plug-In . SVG Version: 9.03 Build 0)  -->
<svg version="1.1" id="Camada_1" xmlns="http://www.w3.org/2000/svg" xmlns:xlink="http://www.w3.org/1999/xlink" x="0px" y="0px"
	 width="714px" height="225px" viewBox="0 0 714 225" style="enable-background:new 0 0 714 225;" xml:space="preserve">
<style type="text/css">
	.Sombra{fill:none;}
	.Cantos_x0020_arredondados_x0020__x002D__x0020_2_x0020_pontos{fill:#FFFFFF;stroke:#000000;stroke-miterlimit:10;}
	.Reflexo_x0020_X_x0020_em_x0020_tempo_x0020_real{fill:none;}
	.Chanfro_x0020_suave{fill:url(#SVGID_1_);}
	.Anoitecer{fill:#FFFFFF;}
	.Foliage_GS{fill:#FFDD00;}
	.Pompadour_GS{fill-rule:evenodd;clip-rule:evenodd;fill:#51AEE2;}
	.st0{fill:#1D95D3;}
</style>
<linearGradient id="SVGID_1_" gradientUnits="userSpaceOnUse" x1="-42" y1="-289" x2="-41.2929" y2="-288.2929">
	<stop  offset="0" style="stop-color:#E6E6EB"/>
	<stop  offset="0.1738" style="stop-color:#E2E2E6"/>
	<stop  offset="0.352" style="stop-color:#D5D4D8"/>
	<stop  offset="0.5323" style="stop-color:#C0BFC2"/>
	<stop  offset="0.7139" style="stop-color:#A4A2A4"/>
	<stop  offset="0.8949" style="stop-color:#828282"/>
	<stop  offset="1" style="stop-color:#6B6E6E"/>
</linearGradient>
<g>
	<path class="st0" d="M206.2,44.1c4.6,5.5,12.6,8.7,17.3,14.1c-3.4-16.2-15.8-29.4-30.6-32.6C200.1,31.1,201.7,38.6,206.2,44.1
		 M28.8,85.1C39,63,54.2,67.6,60.6,46.6c-3.6,6.5-20.2,9.2-27.9,25.8c3.9-9.8,2-24.9,8.6-33.1C21.4,53.9,29.9,77.7,28.8,85.1
		 M47.2,138.2c1.8,8.6-3.5,21.1,5,32.9c-8.8-9.9-27.5-12.4-35.1-27.5c9.5,36.8,34.4,29.2,45.5,37.2
		C53.3,167.5,60.9,158.8,47.2,138.2 M44.3,161.3c-5.5-20.5,4.3-27.6-3.1-47.4c-0.8,11.1-8.2,16.5-3.2,36.9
		c-8.8-17.2-22.4-23.6-26.4-35.4C11.9,147.6,37.8,152.4,44.3,161.3 M84.1,195.7c-7.7-10.6-2.4-16.5-23.8-35.7
		c4.5,7-0.1,15.8,14.4,29.5c-14.1-8.3-33.7-4.7-43.1-15.9C47.8,204.6,76.1,191.9,84.1,195.7 M187.9,189.5
		c14.4-13.7,9.8-22.5,14.4-29.5c-21.4,19.2-16.2,25.1-23.9,35.7c8-3.9,36.4,8.8,52.6-22.1C221.5,184.7,202,181.2,187.9,189.5
		 M210.3,171.1c8.5-11.9,3.1-24.3,5-32.9c-13.7,20.6-6.2,29.4-15.4,42.7c11.2-8,36.1-0.4,45.5-37.2
		C237.8,158.7,219.1,161.3,210.3,171.1 M176.1,197.2c-8.4-2.3-17-3.4-23.5-3.5c-8-0.2-15.2,1.3-21.4,3.6c-6.2-2.3-13.3-3.9-21.3-3.6
		c-6.4,0.1-15.1,1.3-23.5,3.5c-12.9,3.4-24,6.1-33.8,1.2c9.3,8.3,20.2,11.2,35.9,9.5c13-1.4,23.6-7.9,35.9-7.9c0.1,0,0.4,0,0.5,0
		c-13,6.6-20.3,15.8-20.3,15.8l6,0.8c0,0,6.3-12.6,20.6-15.9c14.4,3.3,20.6,15.9,20.6,15.9l6-0.8c0,0-7.4-9.3-20.3-15.8
		c0.1,0,0.3,0,0.5,0c12.3-0.1,22.9,6.4,35.9,7.9c15.7,1.7,26.6-1.2,35.8-9.5C200,203.3,188.9,200.6,176.1,197.2 M42.1,91.6
		c-5.3,10.2-13.6,12.5-12.7,33.6C25,106.5,14.3,99.6,14.5,87.6c-7.4,31.2,12.4,34.9,17.5,48C31.2,116.9,43.2,113.1,42.1,91.6
		 M49.5,67.5c-1.8,2.6-3.1,3.7-8.1,7.7C34.7,80.8,29.3,88,27.1,98.7c0.5-11.4-6.6-27.9-1.8-39.9C7,84.6,26.3,99.9,27,109.3
		C31.7,91.3,42.5,91.2,49.5,67.5 M235.5,98.8c-2.3-10.6-7.7-17.9-14.4-23.5c-5-4.1-6.3-5.2-8.1-7.7c7.1,23.7,17.9,23.8,22.6,41.7
		c0.7-9.3,19.9-24.7,1.7-50.4C242,70.9,235,87.3,235.5,98.8 M250.9,115.3c-3.9,11.8-17.6,18.2-26.4,35.4c5-20.3-2.4-25.7-3.2-36.9
		c-7.4,19.7,2.3,26.8-3.1,47.4C224.7,152.3,250.6,147.5,250.9,115.3 M220.5,91.6c-1,21.4,10.9,25.2,10.2,43.9
		c5.1-13,24.9-16.8,17.5-48c0.1,11.9-10.5,18.9-14.9,37.6C234.1,104.1,225.8,101.7,220.5,91.6 M56.3,44.1c4.6-5.5,6.1-13,13.3-18.4
		C54.8,28.9,42.4,42.1,39,58.3C43.8,52.9,51.7,49.7,56.3,44.1 M201.9,46.6c6.4,21.1,21.6,16.4,31.8,38.5
		c-1.1-7.4,7.4-31.2-12.5-45.8c6.6,8.2,4.7,23.2,8.6,33.1C222.1,55.8,205.6,53.1,201.9,46.6 M150.4,58.5c-3.8-1.6-7.9-2.7-12.1-3.3
		c0,0.9,0,1.8,0,2.7c3.9,0.6,7.7,1.6,11.1,3.1C149.9,60.3,150.3,59.5,150.4,58.5 M147.4,32.5l0.8-0.7l-1.5-0.7h-4.1l-1,0.7l-2.4-0.2
		v0.6c1.5,0.1,3,0.2,4.2,0.4l2-0.2h2.1V32.5z M139.5,120c0-0.7-0.9-1.4-2.3-2H137c0,0.6,0,3.3-0.1,4.7
		C138.6,121.9,139.6,121.1,139.5,120 M92.5,68.4c0.1-0.6,0.2-1,0.4-1.5c-0.5,0.1-1.1,0.2-1.7,0.1L92.5,68.4L92.5,68.4z M131.3,187.8
		c45.7,0,82.8-37.2,82.8-82.8c0-42.8-32.6-78.2-74.4-82.4c0,0.1-0.1,0.4-0.1,0.5c-0.1,0.8-0.3,1.5-0.4,2.2
		c18.7,1.8,35.5,10.1,48.2,22.6l-9.1,9.1l0.4-1.6l-1.2-0.5h-1.7l0.4-1.2l-1.1-3.7l-2.3-2.5l-7.1-3.8l-0.6,0.7l-1.3,0.4
		c2.5,3.6,3.8,7.8,3.8,12c0,0.6,0,1.1,0,1.6l3.6,4.4l-1.7,0.4l1.1,1.7l-3.1,3.1l-1.2-2.4c-0.6,1.7-1.4,3.2-2.4,4.7
		c0.2,0.2,0.5,0.4,0.7,0.7l-9.6,9.6c-0.6-0.6-1.2-1.1-1.8-1.6c-0.9,0.4-1.8,0.8-2.8,1.2c0.3,0.2,0.6,0.4,0.8,0.7l-0.5,0.5l-1.2,0.7
		L149,83l-0.7-0.7l-2,0.7l0.6,0.9l1.4-0.4h0.9V83l0.7-0.4l0.2-0.4l1.2-0.4h1c0,0,0.4,0.3,0.6,0.5l-3.8,3.8l-0.3-0.4l-4,0.7l-0.9,0.9
		H143l2.5-2.3l-0.9-0.4l-2.3,3.1h0.7v1.1l0.9,0.3l0.1,1.2l-1.4-0.3l-1.5,0.3l-3.5-1.8c0,0-0.2,9.4-0.3,14.1c8.2,2.8,17,6.8,17,17.3
		c0,4.7-2,8.4-6,11.1l0,0c0,0-0.1,0.1-0.1,0.1l0,0c0,0-0.1,0.1-0.2,0.1c-3.4,2.2-7.7,3.4-11.4,4.6l-0.1,7.4
		c5.9,2.9,13.1,7.2,12.5,19.5c0,3-1.2,3.9-2.3,4.2c-3.4,0.9-7.1,1.5-10.7,1.7c0,0.9,0,1.8,0,2.7c16-1.1,30.4-7.8,41.3-18.2l9.6,9.6
		c-14.4,13.8-34,22.4-55.5,22.4s-40.9-8.5-55.2-22.1l9.6-9.6c10.8,10.2,25,16.8,40.7,18c0-0.8,0-1.7,0-2.7
		c-14.9-1.2-28.4-7.5-38.8-17.2l2.6-2.6l3.5,0.4l1.9-2l4.9,0.1l0.7-1.7l-0.1-0.7c7.1,5.4,15.7,9,25.1,9.9c0-1,0-2,0-2.7
		c-10.3-1.2-19.7-5.6-27-12.3l9.6-9.6c2.3,2.1,5,3.9,7.8,5.2c0.2-0.9,0.5-1.7,0.9-2.6c-2.5-1.2-4.8-2.8-6.8-4.6l9.7-9.6
		c1.5,1.2,3.3,2.2,5.2,2.9c0-0.9,0-2,0-2.9c-1.2-0.5-2.2-1.2-3.2-1.9l2.7-2.7c-0.9-0.3-1.9-0.6-2.9-0.9l-1.8,1.8
		c-0.9-1-1.7-2.2-2.3-3.4c-1.7-0.7-3.3-1.5-4.7-2.6c-5.9-3.9-9-9.4-9-16.4c0-5.3,1.5-9.3,3.9-12.5l-9.6-9.6
		c6.9-6.6,15.8-11.1,25.6-12.7c0-0.9,0-1.8,0-2.7c-10.6,1.5-20.1,6.4-27.5,13.5l-1.6-1.6c-0.4,0.7-0.8,1.5-1.3,2.5l1,1
		c-8.2,8.8-13.4,20.5-13.6,33.5H67.6c0.2-16.7,6.8-31.8,17.6-43.1l4.3,4.3c0,0,0.4,0,0.6,0c0.8,0,1.6-0.3,2.5-0.7L87.1,59
		c2.9-2.8,6-5.3,9.5-7.6c0.3-0.9,0.5-1.7,0.7-2c0.1-0.4,1-1.5,2.1-2.8c-5.2,2.8-9.9,6.4-14.1,10.5l-9.6-9.6
		c12.6-12.2,29.2-20.5,47.7-22.3c0-0.4-0.1-0.6-0.1-0.6c-0.1-0.7-0.3-1.3-0.4-2C81.1,27.1,48.6,62.3,48.6,105
		C48.6,150.7,85.7,187.8,131.3,187.8 M149.3,130.6L149.3,130.6L149.3,130.6L149.3,130.6 M189.3,49.7c13.6,14.2,21.9,33.4,22.1,54.4
		h-13.6c-0.1-10.4-2.7-20.3-7.1-29.1l0.1-0.2l0.9,0.5l0.2-0.7l-2.4-4.2l-2.9-4l-3.4-2.8c-1.2-1.5-2.4-2.8-3.6-4.2L189.3,49.7
		L189.3,49.7z M172,67.1l3.3,0.1l0.8,0.9l-0.4,1.4l4.6,2.8l0.9-0.1l5.8,6.6l2.3-0.8c3.7,7.9,5.8,16.7,5.9,26h-13.6
		c0-3.6-0.5-7-1.2-10.3l0.7-0.9l0.8-4.2l-0.7-4.6l-1.6-5.2l-3.8-5.5l0.9,0.5l0.4-0.4l-3.1-2l-0.2,0.7l3.1,4.4l1.7,3.6l1.2,3.5
		l0.4,2.4l0.7,4h-1.2c0,0-1.3-2.4-1.7-3.4l0.6-0.9l-1.2-1.7v-1.7l-0.8-1l-1,0.1c-0.4-0.7-0.7-1.4-1.2-2l0.7,0.4l0.2-0.2l-0.4-0.9
		l0.9-0.5l-0.4-0.5l-1.3,0.5l0.5-2l-0.8-0.4l-0.7,1.7c-1.5-2.3-3.1-4.3-5-6.3l3.8-3.7V67.1z M169.2,99.1l2.4-1.3l2.5-0.4l0.6-1.2
		l1.4-0.8l0.5-1.2l0.4-2c0.2,0.7,0.4,1.5,0.6,2.2l-1.3,3.9v1.3l1.9-2.6c0.4,2.3,0.7,4.7,0.7,7.1h-11.9l-0.3-1l1.4-1.1l0.3-0.7
		l0.6-0.4l1.6-0.1l0.1-0.7L169.2,99.1L169.2,99.1z M152.9,89.7l1.2-0.3v-0.3l-1.2-0.8l0.4-2.6l1.5-1.5c0.9,1,1.7,2.1,2.6,3.3
		l-0.5,1.6l-1.3-0.9l-1,0.3l0.5,0.9h0.5l-0.6,1.4l-0.4-0.6l-1.5-0.6H152.9z M158.2,134.9l-2.9-0.9l-0.9,0.4l-1.7-1.2l-1.5-0.6
		c0.8-0.6,1.5-1.2,2.3-1.7l2.4,1.7l1.8,0.9l0.9,0.9L158.2,134.9L158.2,134.9z M156.6,82.4l9.6-9.6c2.3,2.4,4.2,5.1,6,8l-1.2,0.3v2.2
		l3.6,2.3c0.9,2,1.6,4,2.3,6l-0.7,0.9l-1.3,0.8l-0.3,2l-0.9,0.5l-0.7,0.9l-0.7-0.3h-1.3l0.8-1.1l0.5-2.7l0.9-0.6l-2.6-2.5l-2,0.7
		l-0.4,1.8l-1.2,1.3l-1.2-1l-0.4-1.1l0.7-0.4l0.4,0.7l0.6-0.2l-0.3-1.2h-0.9v0.4l-0.6,0.1l-3-3.5l-1-0.8l0.4-0.4l0.9-0.3l-0.9-0.3
		c0,0-1.1,0.2-1.2,0.2l0.6,0.7h-1.5c-0.9-1.4-1.9-2.7-3-3.9 M161.6,133.6l-1.3-1.3l1-1.3l1.2-2.6l-0.5-0.7l0.8-1.9V124l-0.6-1.7
		l-1.2-0.4l-0.4,1l-0.7-0.2c1-1.6,2.1-3.1,2.8-5l1.2-0.5l0.7-0.9l0.3,0.4l0.8-1l-0.7-0.8l0.6-0.1l1.1,0.4h2.1l1.2-0.6l3.4-0.9
		l-0.7-1.1l-0.2-1.3l1.7,0.8l0.7-0.4l-0.4-1.4l-2.2,0.8l-2.4-0.5l-1.8-3.8h10.4c-0.4,12-5.4,22.8-13.1,31l-1.5-1.5l0.6-1.9l-1.1-4.2
		l-2.3,3.4L161.6,133.6z M163.4,160.2l1.3-2.8l-0.5-1.2l1.9-1.7v-1l-1.6-1l1.3-2.6l2-2.6l-2-2.2h-1.5l-0.9-1.5
		c0.8-0.7,1.6-1.3,2.3-2l9.6,9.6c-3.6,3.4-7.7,6.4-11.9,9 M175.3,147.4l1-1.2l-1-5.2l-0.7-0.3l0.4-0.9l-2.3-0.7l-0.4,1.9l-0.2,2.4
		l-0.5,0.4l-4.2-4.2c8.2-8.6,13.5-20.1,13.9-32.9H195c-0.5,16.5-7.2,31.4-17.9,42.5L175.3,147.4L175.3,147.4z M179.1,151.2
		c11.2-11.6,18.2-27.2,18.7-44.4h13.6c-0.4,21-9,39.9-22.7,54L179.1,151.2z M97.2,138c-1-1-1.9-2.1-2.8-3.2l0.4-3.4l-1.5-3.3
		l-0.4-5.2l-1.6-3.1l0.4-2l-2-3.7l-1.7-0.9l0.7-2l-0.7-1.6l0.7-1.8h1.9l0.7-1.1h3.2l0.5,0.9l-0.6,3.2l-0.4,0.6l1.2,2.6l-0.8,0.4
		l-0.5-0.7l-0.2,0.2l0.5,1.5l0.9,1.8h0.4l0.2-1.7l-0.4-0.6v-1.1l-0.2-2.3l0.7-4l-0.7-1.1h2.3c0.4,8.4,3.9,15.9,9.3,21.6L97.2,138
		L97.2,138z M88.2,111.4l-1.3,2h-2.2l-0.1-0.1c-0.4-2.1-0.6-4.3-0.7-6.5h4.1l-1,3.3L88.2,111.4L88.2,111.4z M92.7,102l0.2-2.7
		l1.6-0.9l2.9,0.5l0.4,0.5c-0.2,1.5-0.4,3.1-0.4,4.7h-3.3L92.7,102L92.7,102z M106.5,112.2l0.7-0.4l1.8,1.3l-0.8,0.7l2,1.3l-0.1-1.4
		l1.1-1.7l1.1,1.2l1.2,1.7l-2,0.4l0.9,1.9l1.5-0.7l-0.2-0.6l1.1-0.7l0.7-3c0.8,1.7,1.8,3.4,3.1,4.7l-9.6,9.6
		c-4.6-4.8-7.7-11.1-8.5-18.1l2,2.1h1.8L106.5,112.2L106.5,112.2z M96.7,72.5l9.6,9.6c-2,2.2-3.7,4.7-5.1,7.4h-0.7l-1.3,0.4h-0.4
		l-1.5,1.3l1.8-0.3l1.6-0.4c0,0-0.1,0.4-0.3,0.6L99,91.9h-0.7l-2.1,1.6l-2-0.1l-3,5.5l0.6,1.1l-1.6,1.7l-0.2,2.3h-6
		C84.1,91.8,88.9,80.8,96.7,72.5 M84.2,145.1l3.1,1.7l0.7,0.4l-2.2,2.2c-1-1-2-2.2-3-3.3L84.2,145.1L84.2,145.1z M81.2,106.8
		c0,1.3,0.1,2.6,0.3,3.9l-1.7,0.4l-0.4,1.7l-3.5,4.4v6l-3.5,1.2h-2c-1.8-5.6-2.8-11.5-3.1-17.6h13.6L81.2,106.8z M67.7,124.4
		l-0.8-0.1l-0.8-0.9l-3.8-0.4l1.2,1.6l-3.6-0.7l0.9-0.8l-0.9-0.9l-2.6,1.1l-0.9,1.7l0.4,3.9l2.9,7.1l1.4,2.2l0.8,0.3l-2.3-4.2
		l-0.5-2.1l0.5-0.5l-0.3-1.2l1.3,0.1l2,3.1l0.5,0.2v-2.3l0.8,0.5l0.1,1.2l2.2,0.6l0.9-0.7l0.3,0.2v1.7l0.9,1.2l1.2,0.3l2.6,4.3
		l1.5,0.4l0.5-2c2.6,4.4,5.8,8.5,9.4,12.1l-9.6,9.6c-13.8-14.1-22.4-33.2-23-54.2h13.6c0.1,6.1,1.2,12,2.9,17.6 M73.6,49.5l9.6,9.6
		c-11.2,11.7-18.1,27.6-18.4,45H51.3C51.5,82.9,59.9,63.7,73.6,49.5 M172.1,44.6l-0.8-1.3l-1.7-0.9l-1.4,1.1l1.7,0.9l2,1.5
		L172.1,44.6L172.1,44.6z M163.8,82.9v1l2.4-0.7l0.7-1.5l-1.6-2.1l0.9-1.3l2.2,1.6l0.4-0.3l-0.4-0.3l-0.5-0.9l0.9-0.5l-0.9-1.2l-2,1
		l-0.7,1.2l-0.4,1.2l0.9,1.5l-0.4,0.7L163.8,82.9L163.8,82.9z M65.5,143.9l0.1-0.6l-1.2-2.7l-1.5-0.5L65.5,143.9L65.5,143.9z
		 M121.1,92.8c0,2.3,1.4,3.9,3.9,5.3c0,0,0-0.4,0-1l-1.6-1.6l0.9-1.5l0.7-0.2c0-2.7-0.1-5.6-0.1-6h-0.1
		C122.4,89,121.1,90.5,121.1,92.8"/>
	<path class="st0" d="M136.3,151.8c4.2,2.2,8.2,5.2,9.8,10.8c0.7-9.4-4.5-13.4-9.8-16.2L136.3,151.8"/>
	<path class="st0" d="M164.7,56.7c0-8.5-6.2-18-21.3-21.3c-1.1-0.2-2.8-0.4-4.6-0.5c0,1.3-0.1,4.2-0.1,4.2c0,0.9-0.1,4.3-0.1,5
		c1.4,0.1,2.4,0.3,2.9,0.4c8.8,2.1,11.9,7.1,11.9,12.1c0,8.1-6.9,11.1-15.4,13.4c-0.9,0.2-1.9,0.5-2.8,0.7c-2.6,0.7-5.2,1.2-7.9,2
		c-0.9,0.2-1.9,0.5-2.8,0.8c-9.4,2.8-17.5,7.4-17.5,19s9.3,15.8,18.2,18.6c0-3.3-0.1-6.6-0.2-10c-3.9-1.9-6.8-4.3-6.8-8.5
		s2.6-6.5,6.5-8.2c0.9-0.4,1.8-0.7,2.8-1.1c2.3-0.8,4.7-1.4,7.4-2c0.9-0.2,1.9-0.4,2.8-0.7C150.6,77.7,164.8,73.7,164.7,56.7"/>
	<path class="st0" d="M119.1,138c0,4.7,3.4,7.2,6.8,9.1c0-0.8-0.1-8-0.1-8.1c0.1-1.5,1.5-2.3,2.6-2.8c1.7-0.8,3.4-1.3,5.5-2.1
		c1-0.4,1.9-0.7,2.8-1c6.9-2,14.9-4.7,14.9-13.1s-6.8-11.8-14.3-14.4c0,2.7-0.1,6.6-0.1,9.3c3.1,1.2,5.2,2.8,5.2,5.2
		c0,3-3.2,4.7-5.5,5.6c-0.9,0.4-2.4,0.9-2.8,0.9c-1.8,0.6-3.8,1.2-5.6,1.9c-0.9,0.4-1.9,0.7-2.8,1.2c-3.2,1.7-6.6,4.1-6.6,8.3"/>
	<path class="st0" d="M123.8,36.2c-4.6,1.3-7.3,3.1-8.3,3.4c-3,1-7.1,1.2-11.5,5.8c-0.7,0.8-2.6,3.2-3.9,5.1
		c-1.3,1.9-1.4,4.9-2.3,6.5c-1.4,2.3-1,3.7-1,3.7l0,0c0,0.4-0.3,1.6-1.6,3.1c-1.5,1.6-3.4,2.5-5.6,2.1c2,1,4.7-0.4,4.7-0.4
		s-0.5,1.5-1,3.9c2.2-5,4.2-6.8,4.9-7.4c0.9,0.2,2.9,0.1,6.6-2c4.2-2.4,10.3-6.3,12.1-8.7c1.9-2.6,4.5-4.4,7.3-5.5
		C123.8,42.1,123.8,38.9,123.8,36.2 M105.8,52.5l-2.1,0.5l3.1-4.9h3L105.8,52.5L105.8,52.5z"/>
	<path class="st0" d="M132.3,137.4c-0.4,0.1-1.5,0.6-2.1,0.8c-0.7,0.2-1.6,0.6-1.5,0.8c0,0,0.7,36.1,0.7,36.9c0,7.4,3.8,7.4,3.8,0
		c0-0.5,0.7-39.1,0.7-39.1S132.9,137.1,132.3,137.4"/>
	<path class="st0" d="M128.4,125.5c1.2-0.4,2.3-0.8,3.4-1.1c0.8-0.2,1.6-0.5,2.3-0.7c0-2.3,0.7-33.6,0.8-39.3
		c-2.8,0.7-5.2,1.4-7.3,2.1C127.6,90.7,128.3,122.1,128.4,125.5"/>
	<path class="st0" d="M131.6,5.4c-10.6,0-6.1,15.7-5.2,20.8c0,0.2,0.9,35.6,1,43.6c1.6-0.4,3.2-0.8,4.7-1.2c1.1-0.3,2.2-0.5,3.2-0.8
		c0.1-7.8,0.9-41.5,0.9-41.7C136.9,20.7,142.4,5.4,131.6,5.4"/>
	<polygon class="st0" points="310.1,55.6 309.9,55.6 300.9,104.7 288.6,104.7 277,44.8 286.8,44.8 294.8,91 295,91 303.6,44.8 
		316.3,44.8 324.9,91 325,91 333.3,44.8 342.8,44.8 331.1,104.7 318.5,104.7 	"/>
	<path class="st0" d="M360.2,59.8c8.6,0,18.5,4.7,18.5,22.7s-9.9,22.8-18.5,22.8c-8.6,0-18.6-4.3-18.6-22.8S351.6,59.8,360.2,59.8
		 M360.2,97.8c6.6,0,8-7.9,8-15.3s-1.5-15.2-8-15.2c-6.6,0-8.1,7.8-8.1,15.2S353.6,97.8,360.2,97.8"/>
	<path class="st0" d="M385,67.8c0-2.8-0.1-5.3-0.3-7.3h9.2c0,2.7,0.3,5.4,0.3,8.1h0.1c1.2-3.4,4.4-8.7,10.7-8.7
		c0.7,0,1.2,0.1,1.7,0.2v10c-0.9-0.2-1.8-0.4-2.8-0.4c-4.2,0-8.7,2.6-8.7,10.9v24.2H385L385,67.8L385,67.8z"/>
	<rect x="413.1" y="40.3" class="st0" width="10.1" height="64.3"/>
	<path class="st0" d="M465.5,40.3v56.8c0,3.2,0.1,5.9,0.4,7.6h-9.5c-0.1-1.3-0.3-3.9-0.3-6.8h-0.2c-1.6,3.8-4.7,7.5-11.2,7.5
		c-10.5,0-14.8-10.5-14.8-22.7c0-14.4,5.5-22.8,14.5-22.8c6,0,9.4,3.6,10.9,7h0.1V40.3L465.5,40.3L465.5,40.3z M447.3,97.5
		c6,0,8-6.8,8-15.1s-2.3-14.9-7.9-14.9s-7.6,5.8-7.6,14.6C439.9,92.3,441.4,97.5,447.3,97.5"/>
	<polygon class="st0" points="498.9,44.8 509.3,44.8 509.3,69.2 526.3,69.2 526.3,44.8 536.7,44.8 536.7,104.7 526.3,104.7 
		526.3,78.2 509.3,78.2 509.3,104.7 498.9,104.7 	"/>
	<path class="st0" d="M575.5,102.5c-2.1,0.9-6.6,2.8-12.6,2.8c-13.6,0-19.5-10.2-19.5-22.1c0-13.2,6.6-23.5,17.3-23.5
		c9,0,16.8,5.6,16.8,23.6v2h-24.3c0,7.6,2.8,12.1,10.7,12.1c6.2,0,9.2-2,11-3.4L575.5,102.5L575.5,102.5z M567.9,78.7
		c0-7.8-2.5-11.7-7-11.7c-5.3,0-7.5,5.9-7.5,11.7H567.9L567.9,78.7z"/>
	<path class="st0" d="M586.7,63.1c2.8-1.4,6.8-3.3,13.3-3.3c13,0,16.1,6.7,16.1,17.8v19.3c0,3.2,0.4,6.1,0.6,7.8h-9.2
		c-0.5-1.7-0.6-3.9-0.6-6h-0.1c-2.6,3.6-5.8,6.7-11.8,6.7c-6.6,0-12.6-4.7-12.6-13c0-12,9.3-15,22.1-15h2v-1.6c0-4.4-2-8.4-7.9-8.4
		c-5,0-9.5,2.6-11.5,4.3L586.7,63.1L586.7,63.1z M606.7,83h-0.9c-8.7,0-13.8,1.9-13.8,8.3c0,4,2.6,6.8,6.5,6.8c6,0,8.2-4.7,8.2-12.6
		L606.7,83L606.7,83z"/>
	<rect x="626.1" y="40.3" class="st0" width="10.1" height="64.3"/>
	<path class="st0" d="M648.9,51.4l10.1-3.3v12.3h8.5v7.8H659v22.9c0,4.7,1.7,6.1,4.6,6.1c1.8,0,3.1-0.5,3.9-0.9v7.6
		c-1.5,0.8-3.8,1.5-6.8,1.5c-7.5,0-11.8-3.6-11.8-12.8V68.3h-6.7v-7.8h6.7L648.9,51.4L648.9,51.4z"/>
	<path class="st0" d="M672.7,40.3h10.1v25.9h0.2c1.8-2.8,4.2-6.3,10.5-6.3c9.5,0,12.5,7.4,12.5,16.4v28.5h-10.1V78.2
		c0-6.8-1.6-9.6-5.8-9.6c-5.3,0-7.2,4.7-7.2,10.4v25.7h-10.1V40.3z"/>
	<path class="st0" d="M299.4,120.6c11.9,0,22.7,9.3,22.7,30.8s-10.9,30.8-22.7,30.8c-11.9,0-22.7-9.3-22.7-30.8
		S287.5,120.6,299.4,120.6 M299.4,173.8c6.6,0,11.9-5.9,11.9-22.4s-5.3-22.4-11.9-22.4c-6.6,0-11.9,5.9-11.9,22.4
		S292.7,173.8,299.4,173.8"/>
	<path class="st0" d="M328.9,144.4c0-2.8-0.1-5.3-0.4-7.3h9.2c0,2.6,0.3,5.4,0.3,8.1h0.1c1.2-3.4,4.4-8.7,10.7-8.7
		c0.7,0,1.2,0.1,1.7,0.3v10c-0.9-0.3-1.8-0.4-2.8-0.4c-4.2,0-8.7,2.6-8.7,10.9v24.2h-10.1v-36.9L328.9,144.4z"/>
	<path class="st0" d="M356.9,188.2c2.3,1.4,7.1,3.8,12.4,3.8c9.5,0,11.1-6.9,11.1-13.9v-4.2h-0.1c-1.6,3.4-4.5,7.5-11.1,7.5
		c-5.9,0-14.7-4.2-14.7-22c0-12.2,4.2-22.9,15.2-22.9c6.1,0,9,3.7,11.1,7.6h0.3c0-2.3,0.2-4.5,0.3-6.8h9.2c-0.1,2.3-0.3,4.6-0.3,6.9
		v32.6c0,13.8-4,23.7-19.5,23.7c-6.7,0-12-1.8-14.4-2.8L356.9,188.2L356.9,188.2z M372.7,173.5c6.3,0,8.9-4.8,8.9-14.9
		c0-9.3-3.4-14.2-8.2-14.1c-5.3,0.1-7.4,5.2-7.4,14.2C366,169.1,369.2,173.5,372.7,173.5"/>
	<path class="st0" d="M401.2,139.7c2.8-1.4,6.8-3.3,13.3-3.3c13.1,0,16.1,6.7,16.1,17.8v19.3c0,3.2,0.4,6,0.6,7.8h-9.2
		c-0.5-1.7-0.6-3.9-0.6-6h-0.1c-2.6,3.6-5.7,6.7-11.7,6.7c-6.6,0-12.6-4.7-12.6-13c0-12,9.3-15,22.1-15h2v-1.6c0-4.4-2-8.4-7.9-8.4
		c-5.1,0-9.5,2.6-11.5,4.3L401.2,139.7L401.2,139.7z M421.1,159.7h-0.9c-8.7,0-13.8,1.9-13.8,8.3c0,4,2.6,6.8,6.5,6.8
		c6,0,8.2-4.7,8.2-12.6L421.1,159.7L421.1,159.7z"/>
	<path class="st0" d="M440.9,144.4c0-2.8-0.1-5.3-0.3-7.3h9.5c0.1,2.3,0.3,4.6,0.3,6.8h0.2h-0.1c1.5-2.6,4.4-7.4,11.2-7.4
		c9.5,0,12.4,7.4,12.4,16.4v28.5H464v-26.5c0-6.8-1.6-9.6-5.8-9.6c-5.3,0-7.2,4.7-7.2,10.3v25.7h-10.1L440.9,144.4L440.9,144.4z"/>
	<path class="st0" d="M483.2,118.4h10.5v10.5h-10.5V118.4z M483.3,137.2h10.1v44.2h-10.1V137.2z"/>
	<polygon class="st0" points="502.9,172.1 520.9,145.2 503.5,145.2 503.5,137.2 531.1,137.2 531.1,146.3 513.4,173.3 531.6,173.3 
		531.6,181.4 502.9,181.4 	"/>
	<path class="st0" d="M541.2,139.7c2.8-1.4,6.8-3.3,13.3-3.3c13,0,16.1,6.7,16.1,17.8v19.3c0,3.2,0.4,6,0.6,7.8H562
		c-0.5-1.7-0.6-3.9-0.6-6h-0.1c-2.6,3.6-5.7,6.7-11.7,6.7c-6.6,0-12.6-4.7-12.6-13c0-12,9.3-15,22.1-15h2v-1.6c0-4.4-2-8.4-7.9-8.4
		c-5.1,0-9.5,2.6-11.5,4.3L541.2,139.7L541.2,139.7z M561.2,159.7h-0.9c-8.7,0-13.8,1.9-13.8,8.3c0,4,2.6,6.8,6.5,6.8
		c6,0,8.2-4.7,8.2-12.6L561.2,159.7L561.2,159.7z"/>
	<path class="st0" d="M582.3,128l10.1-3.3v12.4h8.5v7.8h-8.5v22.9c0,4.7,1.7,6.1,4.6,6.1c1.8,0,3.1-0.5,3.9-0.9v7.6
		c-1.5,0.8-3.8,1.5-6.8,1.5c-7.5,0-11.8-3.6-11.8-12.8V145h-6.7v-7.8h6.7L582.3,128L582.3,128z"/>
	<path class="st0" d="M607.8,118.4h10.5v10.5h-10.5V118.4z M609.1,137.2h10.1v44.2h-10.1V137.2z"/>
	<path class="st0" d="M645.5,136.5c8.6,0,18.5,4.7,18.5,22.7s-9.9,22.8-18.5,22.8s-18.6-4.3-18.6-22.8S636.9,136.5,645.5,136.5
		 M645.5,174.5c6.6,0,8-7.9,8-15.3c0-7.4-1.5-15.2-8-15.2s-8.1,7.8-8.1,15.2S639,174.5,645.5,174.5"/>
	<path class="st0" d="M672.8,144.4c0-2.8-0.1-5.3-0.4-7.3h9.5c0.1,2.3,0.4,4.6,0.4,6.8h0.2h-0.1c1.5-2.6,4.3-7.4,11.2-7.4
		c9.5,0,12.4,7.4,12.4,16.4v28.5h-10.1v-26.5c0-6.8-1.6-9.6-5.8-9.6c-5.3,0-7.2,4.7-7.2,10.3v25.7h-10.1L672.8,144.4L672.8,144.4z"
		/>
</g>
</svg>
