<svg width="80" height="80" viewBox="0 0 80 80" fill="none" xmlns="http://www.w3.org/2000/svg">
<g id="Component 1" opacity="0.8">
<path id="Vector" d="M40 5C33.0777 5 26.3108 7.05271 20.5551 10.8986C14.7993 14.7444 10.3133 20.2107 7.66423 26.6061C5.01516 33.0015 4.32205 40.0388 5.67253 46.8282C7.02301 53.6175 10.3564 59.8539 15.2513 64.7487C20.1461 69.6436 26.3825 72.977 33.1719 74.3275C39.9612 75.678 46.9985 74.9848 53.3939 72.3358C59.7893 69.6867 65.2556 65.2007 69.1015 59.445C72.9473 53.6892 75 46.9223 75 40C75 30.7174 71.3125 21.815 64.7487 15.2513C58.185 8.68749 49.2826 5 40 5ZM58.6175 42.2375L28.6175 57.2375C28.2363 57.428 27.8127 57.5179 27.3869 57.4986C26.9612 57.4793 26.5474 57.3515 26.1849 57.1273C25.8225 56.9031 25.5234 56.59 25.316 56.2177C25.1086 55.8454 24.9998 55.4262 25 55V25C25.0002 24.574 25.1093 24.1552 25.3169 23.7832C25.5244 23.4112 25.8236 23.0984 26.186 22.8745C26.5484 22.6506 26.962 22.523 27.3875 22.5039C27.8131 22.4847 28.2365 22.5746 28.6175 22.765L58.6175 37.765C59.0322 37.9728 59.3809 38.292 59.6246 38.6867C59.8683 39.0814 59.9973 39.5361 59.9973 40C59.9973 40.4639 59.8683 40.9186 59.6246 41.3133C59.3809 41.708 59.0322 42.0271 58.6175 42.235" fill="white"/>
</g>
</svg>
