<svg width="500" height="415" viewBox="0 0 500 415" fill="none" xmlns="http://www.w3.org/2000/svg">
	<path d="M217.05 69.7655C218.417 69.9895 225.144 69.3549 225.622 70.0268C225.779 70.2508 225.712 75.2384 225.361 75.4848C224.868 75.8357 219.91 75.007 219.387 75.7461C217.715 78.1055 220.112 126.832 220.164 133.671L266.665 132.894C268.151 118.096 263.021 85.2957 270.824 77.8218C270.182 87.7074 271.675 132.857 270.824 136.008C270.764 136.239 269.868 137.598 269.525 137.83C267.397 139.241 221.082 138.98 218.611 138.352C218.2 138.248 216.52 136.993 216.274 136.531C214.781 133.731 214.84 76.2912 215.236 73.1478C215.363 72.1324 215.804 70.2135 217.058 69.773L217.05 69.7655Z" fill="#C6C7CB" />
	<path d="M248.484 74.9622C246.229 78.8746 242.354 77.4037 238.614 78.5983C237.718 78.337 235.814 77.9711 235.5 77.2991L236.277 62.4932L248.484 63.2697C248.26 67.1298 248.79 71.1169 248.484 74.9622Z" fill="#A4C9A1" />
	<path d="M227.96 113.407C229.215 112.518 257.363 112.518 258.61 113.407C258.939 113.638 259.043 117.431 258.871 117.82C258.252 119.208 229.872 119.216 228.475 118.596C227.258 118.059 227.565 113.676 227.953 113.4L227.96 113.407Z" fill="#ABB36C" />
	<path d="M228.998 103.536C230.35 102.939 257.259 102.939 258.61 103.536C259.506 103.932 259.671 106.523 259.387 106.911C258.483 108.165 229.737 108.061 228.476 107.172C227.99 106.829 227.916 104.014 228.998 103.536Z" fill="#EE6636" />
	<path d="M227.961 96.264C229.364 95.6443 257.363 95.3755 258.61 96.264C259.006 96.5402 258.954 98.9967 258.872 99.1236C257.976 100.385 229.372 100.527 227.961 99.9001C226.826 99.3999 226.826 96.7642 227.961 96.264Z" fill="#EE6636" />
	<path d="M228.997 123.278C230.214 122.479 256.906 122.441 258.093 123.278C258.482 123.554 258.437 125.503 258.355 125.615C257.563 126.66 233.417 126.085 232.118 125.876C231.117 125.712 226.712 124.778 229.004 123.278H228.997Z" fill="#F27F32" />
	<path d="M260.168 69.7655C261.392 69.2205 273.936 68.1154 270.815 75.7387C270.561 76.3659 260.653 76.2166 260.168 76C258.981 75.4699 258.981 70.2957 260.168 69.7655Z" fill="#C6C7CB" />
	<path d="M230.556 85.3555C237.582 82.227 237.336 91.3511 236.268 92.1126C236 92.2993 230.273 92.4486 229.772 91.3361C229.481 90.6716 229.563 85.8035 230.549 85.363L230.556 85.3555Z" fill="#5D9AC3" />
	<path d="M246.662 85.8707C257.145 83.7204 255.07 95.7712 245.363 91.3287C248.432 88.8722 245.02 87.0205 246.662 85.8707Z" fill="#F27F32" />
	<path d="M241.467 85.8706C247.015 83.571 244.312 90.0518 244.327 91.3286C244.334 92.1649 246.455 94.2853 245.626 94.7034C239.585 97.7946 240.892 86.1096 241.467 85.8706Z" fill="#F9A41B" />
	<path d="M238.605 78.5983C242.346 77.4037 246.221 78.8746 248.476 74.9622C248.409 75.8133 248.752 78.7402 248.215 79.121C244.952 78.9866 241.816 79.5466 238.605 78.5983Z" fill="#989165" />
	<path d="M452.138 340.439C451.466 340.41 450.771 340.454 450.062 340.439C449.584 338.2 451.331 339.036 452.138 340.439Z" fill="#614226" />
	<path d="M424.599 267.186C424.629 267.522 424.532 267.94 424.599 268.224L414.728 268.485L417.842 295.76C415.079 295.693 412.294 295.812 409.532 295.76C408.188 286.935 407.807 277.9 406.933 269.008H391.351C393.583 285.464 394.188 302.137 396.025 318.622C394.509 317.331 389.23 313.209 388.23 312.911L381.219 268.231L224.58 269.269C222.243 268.53 214.762 267.485 208.475 265.633C204.114 264.349 199.858 262.706 195.483 261.474L194.445 255.24C274.687 255.83 355.011 255.232 435.246 254.717C428.257 257.741 423.785 257.689 424.599 267.186Z" fill="#784330" />
	<path d="M228.216 243.809C232.278 244.137 235.078 242.801 234.451 245.369C217.054 245.212 199.642 245.488 182.238 245.369C181.857 245.167 182.85 243.435 183.275 243.293C185.687 242.479 222.99 243.39 228.216 243.816V243.809Z" fill="#6E8498" />
	<path d="M194.447 255.24L195.485 261.474C188.31 259.451 181.157 258.04 173.922 256.278C173.534 256.18 173.66 255.583 173.66 255.24C180.231 255.628 187.727 255.187 194.44 255.24H194.447Z" fill="#5C3830" />
	<path d="M405.373 393.436C405.402 394.818 405.35 396.214 405.373 397.595C403.566 397.237 400.064 397.856 397.839 397.595C396.98 397.214 396.719 392.189 396.54 390.838C395.435 382.662 394.964 366.326 393.941 354.992C394.285 354.992 394.837 355.141 394.979 354.73C395.382 353.58 396.017 340.051 398.615 335.25C400.407 350.631 405.111 381.975 405.373 393.436Z" fill="#A96849" />
	<path d="M77.5522 201.728C73.483 216.914 98.742 269.217 114.698 278.102C125.763 278.027 154.524 271.696 163.013 277.064C168.845 280.753 179.342 310.141 195.485 316.808L185.092 317.331L196 318.107C190.206 318.182 184.39 318.01 178.596 318.107C178.491 318.107 177.282 319.138 176.774 319.145C160.482 319.384 143.735 319.227 127.421 319.145C123.254 319.123 121.993 319.668 121.709 319.668C111.248 319.578 96.0541 320.474 88.9759 311.873C88.8938 311.261 86.4298 302.174 85.8624 299.926C85.6832 299.217 85.5413 298.575 85.3397 297.851C84.5632 295.013 83.4881 292.288 82.7414 289.541C82.2934 287.898 81.7334 287.577 81.7036 287.465C80.8673 284.322 79.9116 281.283 79.1052 278.117C75.9021 265.536 63.9334 213.674 69.2346 204.602C70.9145 201.728 74.5059 201.511 77.5448 201.743L77.5522 201.728Z" fill="#39828E" />
	<path d="M119.117 194.97C118.161 201.466 115.682 215.279 115.481 218.609C114.726 230.899 113.801 236.111 126.912 238.612C126.299 239.724 126.665 241.158 126.389 242.248C125.053 247.572 119.617 259.742 122.23 263.55L118.855 273.42C120.804 274.548 151.954 270.859 158.861 272.383C168.843 274.578 171.778 286.524 175.742 288.488C174.443 291.221 185.807 305.825 187.435 306.669C190.511 308.259 198 308.102 201.726 308.229C201.741 308.617 202.756 310.932 202.763 311.089C202.875 313.344 202.136 316.233 202.241 318.1H196.006L185.098 317.323L195.491 316.801C179.349 310.133 168.851 280.745 163.019 277.057C154.53 271.688 125.769 278.02 114.704 278.094C98.7482 269.209 73.4892 216.914 77.5584 201.72C80.7242 189.893 110.075 196.688 119.124 194.963L119.117 194.97Z" fill="#064E52" />
	<path d="M176.78 319.145C172.397 329.008 154.104 320.661 151.842 326.679C150.483 330.3 152.215 363.847 152.364 371.358C158.248 373.322 192.325 380.915 194.184 382.005C198.701 384.648 194.468 387.276 196.521 392.914C193.37 401.545 187.867 395.684 186.65 395.512C185.829 394.392 184.955 392.772 185.09 391.353C185.247 389.696 192.653 385.709 172.359 384.596C171.337 384.544 165.67 384.409 165.348 384.857C165.886 386.799 166.446 388.792 166.386 390.83C166.327 392.817 165.811 393.294 165.348 394.989C164.788 395.019 157.539 399.589 155.478 393.951C155.373 393.668 155.523 392.944 155.478 392.391C155.067 387.612 158.061 385.768 158.076 385.38C158.33 376.54 127.18 386.395 121.707 385.119C122.118 382.558 122.379 379.9 122.745 377.324L142.486 370.828L141.964 325.626C139.044 322.96 133.086 325.372 130.017 323.804C128.419 322.99 128.173 320.534 127.419 319.13C143.733 319.212 160.48 319.369 176.772 319.13L176.78 319.145Z" fill="#232224" />
	<path d="M127.427 319.145C128.181 320.549 128.428 323.005 130.026 323.819C126.808 341.522 125.299 359.524 122.753 377.331C122.387 379.907 122.126 382.565 121.715 385.126C121.297 387.702 121.245 390.375 120.678 392.921C120.528 393.593 120.7 394.855 120.155 396.035C118.512 399.648 116.123 397.647 112.621 398.11C112.099 397.737 112.42 395.266 112.36 394.474C112.226 392.712 112.659 387.837 112.883 385.641C113.047 384.029 113.719 382.229 113.921 380.445C116.235 360.173 119.483 339.947 121.715 319.66C121.999 319.66 123.261 319.123 127.427 319.138V319.145Z" fill="#A25833" />
	<path d="M113.92 380.445C113.718 382.229 113.046 384.029 112.882 385.641L105.61 387.978L106.647 394.989C103.833 395.99 99.3378 400.619 96.7768 394.989C95.1715 391.465 97.9341 391.965 96.2542 387.717V386.679C100.727 381.692 107.924 382.252 113.92 380.445Z" fill="#232224" />
	<path d="M204.319 393.952C204.999 403.061 209.045 403.71 208.732 394.474C214.055 398.879 216.945 397.625 218.603 405.383C224.217 405.532 229.877 405.181 235.484 405.383C241.562 405.599 247.109 405.45 253.15 405.383C254.591 405.368 277.349 407.526 271.592 402.784C271.375 402.605 269.091 402.411 268.732 402.262C269.098 400.649 265.596 394.362 264.574 392.914L321.722 392.391C321.752 392.593 322.028 393.19 322.244 393.952C300.689 401.829 318.123 405.487 330.301 406.943C342.673 405.196 399.873 411.207 406.675 403.83C407.885 402.516 408.684 398.252 405.376 397.595C405.354 396.214 405.406 394.818 405.376 393.436H420.958C421.884 394.863 423.676 396.707 425.371 397.073C426.566 397.326 448.592 397.319 449.786 397.073C450.018 397.028 452.81 395.348 453.161 394.997L498.102 400.709V401.747C496.706 401.985 495.212 402.941 493.943 403.307C481.795 406.809 400.284 411.363 381.722 412.14C337.917 413.969 293.596 414.357 249.76 414.216C207.903 414.081 165.86 413.178 124.032 411.617C97.3996 410.624 38.5266 408.414 15.4477 405.383C11.5278 404.868 -5.15222 403.008 2.4561 400.186C7.23463 398.417 42.2747 394.579 50.5102 394.989C53.4445 399.208 74.6717 396.169 80.3835 396.55C81.0629 396.259 82.2725 395.042 82.7205 394.989C87.0734 394.519 92.3074 394.915 96.75 394.989C99.311 400.619 103.806 395.99 106.621 394.989C108.077 394.467 110.735 394.556 112.332 394.467C112.392 395.258 112.071 397.73 112.594 398.103C116.096 397.64 118.485 399.641 120.127 396.027C126.429 397.655 134.381 395.856 141.168 395.505C145.872 395.258 152.188 396.834 155.459 393.944C157.519 399.581 164.769 395.012 165.329 394.982C167.554 394.87 170.324 396.057 172.34 396.02C176.634 395.945 181.039 395.034 185.332 395.497C185.563 395.52 186.131 396.505 186.37 396.535C186.773 396.595 186.579 395.49 186.631 395.497C187.848 395.669 193.351 401.53 196.502 392.899C200.257 392.749 202.229 390.51 204.297 393.937L204.319 393.952Z" fill="#F9DCAD" />
	<path d="M405.376 397.588C408.684 398.245 407.885 402.508 406.675 403.822C399.881 411.207 342.673 405.196 330.301 406.936C318.123 405.48 300.696 401.829 322.245 393.944C323.491 398.334 323.626 396.804 326.919 398.618C327.8 399.103 330.234 402.956 331.593 398.618C341.568 399.305 377.616 397.707 381.73 398.618C385.217 399.395 389.435 408.429 396.536 390.823C396.715 392.167 396.976 397.199 397.835 397.58C400.053 397.842 403.562 397.222 405.369 397.58L405.376 397.588Z" fill="#F2D08A" />
	<path d="M321.735 386.164C321.832 388.128 321.481 390.771 321.735 392.399L264.587 392.921C264.333 392.563 263.758 392.899 258.875 386.164H321.735Z" fill="#FAEACE" />
	<path d="M155.48 392.399C155.525 392.951 155.375 393.668 155.48 393.959C152.209 396.849 145.9 395.273 141.189 395.52C134.402 395.87 126.45 397.662 120.148 396.042C120.686 394.855 120.514 393.601 120.671 392.929C125.42 391.727 152.142 390.756 154.181 391.368C154.785 391.547 153.837 393.631 155.48 392.406V392.399Z" fill="#F9DCAD" />
	<path d="M185.093 391.353C184.958 392.772 185.832 394.392 186.653 395.512C186.601 395.512 186.803 396.61 186.392 396.55C186.153 396.513 185.586 395.534 185.354 395.512C181.061 395.049 176.656 395.953 172.363 396.035C170.339 396.072 167.577 394.885 165.352 394.997C165.814 393.309 166.337 392.824 166.389 390.838C167.136 390.748 166.763 391.831 167.166 391.876C169.6 392.137 180.882 390.569 185.093 391.353Z" fill="#F9DCAD" />
	<path d="M112.363 394.474C110.765 394.556 108.107 394.474 106.651 394.997L105.613 387.986L112.886 385.649C112.662 387.844 112.229 392.72 112.363 394.482V394.474Z" fill="white" />
	<path d="M345.377 31.8434C376.482 29.3421 373.413 79.8975 342.263 73.4091C320.834 68.9442 322.156 33.7174 345.377 31.8434Z" fill="#F9A41B" />
	<path d="M346.416 39.1157C355.959 37.7568 348.425 61.0447 348.753 52.3612C348.768 51.8833 351.621 45.8877 350.829 43.0132C349.851 39.4442 342.788 38.9589 344.595 47.6872C344.774 48.5533 349.276 54.4742 345.371 51.5846C343.116 49.9196 342.758 39.6383 346.409 39.1157H346.416Z" fill="#FAF1C8" />
	<path d="M357.844 57.2965C360.443 60.5071 349.601 65.435 344.853 64.5689C342.195 64.0835 332.608 56.6917 337.58 57.8117C338.782 58.0805 346.547 71.2588 357.844 57.2891V57.2965Z" fill="#ECE9D0" />
	<path d="M31.0543 151.852C36.9229 151.15 56.709 150.635 59.8897 155.749C61.8161 158.848 63.608 186.974 58.0679 189.259C51.7737 191.849 42.0449 185.652 37.2888 194.97C36.5347 185.66 25.3872 192.969 22.4828 185.876C21.6018 183.733 21.6391 159.229 22.4828 156.78C23.7372 153.151 27.7765 152.24 31.0543 151.844V151.852Z" fill="#2F83A2" />
	<path d="M40.4111 159.124C49.7442 158.101 53.1937 172.825 44.0473 174.706C31.2049 177.35 30.1895 160.236 40.4111 159.124Z" fill="white" />
	<path d="M79.6277 74.9621C78.0373 74.096 76.1334 73.5659 74.6924 72.3638C73.0572 72.2443 70.8621 73.9318 69.2344 74.9621C72.6988 65.9949 75.5137 66.1442 79.6277 74.9621Z" fill="#ECE9D0" />
	<path d="M82.225 79.1209C82.4639 79.3449 85.01 84.3474 84.0468 85.3554C77.7526 85.9303 71.2344 86.4903 65.082 85.0941L68.1955 78.5982C68.4569 78.77 71.4957 79.0836 73.6535 81.7118C77.9467 82.3016 79.119 76.1866 82.225 79.1134V79.1209Z" fill="white" />
	<path d="M68.1965 78.5983L65.083 85.0942C71.2353 86.4904 77.7536 85.9229 84.0478 85.3555C85.0184 84.3475 82.4649 79.345 82.226 79.121L83.7865 78.0832C86.5341 80.9727 87.8407 85.1315 88.1991 85.3555C89.8193 86.3485 94.5904 84.2803 95.7328 89.253C96.2405 91.4556 96.2928 132.26 95.7328 134.455C95.4043 135.739 92.5147 138.091 91.3201 138.352C89.7447 138.696 60.6927 138.659 59.1098 138.352C57.5269 138.046 54.6075 136.12 54.1745 134.455C53.5996 132.245 53.607 90.9479 54.1745 88.7378C55.0033 85.5272 59.177 85.7139 61.7081 85.8781C62.7086 85.4078 62.1039 81.7343 66.6435 77.0453C68.4877 76.9632 68.1069 78.5461 68.204 78.6058L68.1965 78.5983Z" fill="#F27F32" />
	<path d="M85.0853 116.005C85.9141 120.306 67.4196 114.445 67.1583 119.903C66.9493 124.256 75.6327 121.493 84.04 122.24V123.278C72.8254 122.516 63.8059 126.033 66.6357 118.342C59.7292 116.797 76.5138 116.453 84.04 117.043C84.152 117.051 84.7045 116.304 85.0778 116.005H85.0853Z" fill="#EFBF4A" />
	<path d="M79.6284 74.9621C81.6592 76.0597 82.1744 76.3882 83.7872 78.0757L82.2267 79.1135C79.1206 76.1866 77.9484 82.3017 73.6552 81.7118C71.5048 79.0836 68.466 78.7626 68.1972 78.5983C68.1076 78.5386 68.4809 76.9557 66.6367 77.0378C67.8836 75.7536 67.7567 75.8954 69.235 74.9621C70.8627 73.9318 73.0579 72.2443 74.693 72.3638C76.1341 73.5659 78.038 74.096 79.6284 74.9621Z" fill="#F8B51F" />
	<path d="M73.1393 74.9622C80.3967 73.2001 78.0821 82.3465 72.6167 79.6362C70.0408 78.3594 70.3544 75.6342 73.1393 74.9622Z" fill="#ECE9D0" />
	<path d="M178.342 126.914C176.774 125.801 179.551 124.315 177.042 122.755C167.336 120.784 177.072 122.352 177.304 119.895C174.9 115.609 175.609 107.934 168.732 109.248C167.829 109.42 153.59 117.207 152.627 118.081C150.088 120.396 149.095 122.538 148.214 125.876C142.495 120.119 140.218 129.049 147.177 133.671C147.236 134.873 149.125 140.01 149.252 141.466C149.439 143.571 149.76 145.565 149.775 147.7C149.812 153.255 150.387 155.174 145.616 158.609C145.407 158.758 141.831 160.281 140.942 160.684C131.28 165.12 127.226 162.193 122.239 175.752C97.211 149.798 128.115 145.655 131.071 128.736C132.356 121.389 129.406 107.449 139.643 99.9001C142.107 98.0857 159.436 92.8219 162.505 92.6277C180.148 91.5078 191.356 110.286 178.349 126.914H178.342Z" fill="#5D2C29" />
	<path d="M174.707 164.321C173.505 163.514 168.241 160.438 167.95 160.162C167.405 159.654 166.875 158.676 166.389 158.086C164.515 155.503 164.291 150.709 165.352 147.693C169.107 147.715 174.065 143.758 175.745 140.421C182.517 148.79 184.749 157.556 174.707 164.321Z" fill="#3C1A1E" />
	<path d="M257.308 397.588C261.138 399.492 264.849 400.656 268.739 402.262C269.098 402.411 271.382 402.605 271.599 402.784C277.356 407.526 254.598 405.368 253.157 405.383C250.902 399.663 249.61 397.491 244.063 394.474C242.883 395.393 245.765 403.994 240.949 402.269C238.911 401.537 239.725 395.564 239.65 393.436C239.545 390.472 240.202 387.336 240.173 384.604C243.809 390.98 250.932 394.414 257.316 397.595L257.308 397.588Z" fill="#202C41" />
	<path d="M235.489 405.383C229.882 405.181 224.222 405.532 218.607 405.383C216.95 397.625 214.06 398.879 208.737 394.474C209.043 403.718 204.996 403.061 204.324 393.952C203.958 389.054 204.279 386.948 205.884 382.52C206.37 389.218 219.242 396.43 225.364 399.148C230.233 401.313 235.638 399.492 235.496 405.383H235.489Z" fill="#202C41" />
	<path d="M164.832 253.164C160.785 259.742 130.681 265.67 122.229 263.557C119.615 259.749 125.051 247.579 126.387 242.256C131.211 244.04 162.607 244.615 164.317 243.032C164.533 242.83 163.854 241.255 164.84 241.21C165.892 243.98 166.258 250.849 164.84 253.157L164.832 253.164Z" fill="#F9A41B" />
	<path d="M179.899 225.105C181.504 212.539 187.224 203.236 185.096 189.52C184.103 183.106 177.935 172.788 179.899 168.479C189.083 175.67 191.651 206.305 202.761 222.768C186.813 233.699 181.967 220.416 179.899 225.105Z" fill="#F28521" />
	<path d="M153.404 240.695C157.01 240.867 160.699 240.658 164.312 240.695C164.484 240.695 164.656 240.695 164.835 240.695V241.218C163.857 241.262 164.529 242.838 164.312 243.04C162.603 244.615 131.214 244.047 126.383 242.263C126.659 241.173 126.293 239.739 126.905 238.627C131.355 239.478 147.774 240.441 153.404 240.703V240.695Z" fill="#F27F32" />
	<path d="M177.303 166.919C178.221 167.367 179.102 167.852 179.901 168.479C177.937 172.788 184.097 183.106 185.098 189.52C187.226 203.236 181.506 212.539 179.901 225.105C179.729 225.501 179.446 225.74 179.378 226.143C174.913 225.658 169.844 226.165 165.349 225.62C164.102 225.471 154.926 222.425 154.44 223.283L153.403 240.688C147.78 240.426 131.354 239.456 126.904 238.612C113.8 236.111 114.719 230.899 115.473 218.609C115.675 215.279 118.153 201.466 119.109 194.97C119.654 191.267 122.969 178.432 122.223 175.744C127.21 162.185 131.265 165.112 140.926 160.677C153.664 167.419 158.129 179.074 166.641 189.774C175.1 168.823 166.469 161.603 177.288 166.911L177.303 166.919Z" fill="#F9A41B" />
	<path d="M141.194 195.493C143.195 196.217 141.522 197.166 141.97 199.906C143.097 206.745 144.621 213.525 145.345 220.424L135.736 218.602C135.034 215.503 139.693 196.016 141.194 195.486V195.493Z" fill="#F9A41B" />
	<path d="M173.667 255.24C173.667 255.591 173.54 256.188 173.929 256.277C181.156 258.04 188.309 259.451 195.492 261.474C199.86 262.706 204.123 264.349 208.484 265.633C212.433 268.657 221.684 273.376 224.066 277.841C229.307 287.637 224.059 335.825 224.589 339.663C224.671 340.245 226.097 340.484 226.149 340.701C226.336 341.515 225.94 342.903 226.149 343.56C224.2 344.113 225.507 347.921 225.111 351.094C223.976 360.278 218.989 376.48 218.877 377.846C212.187 380.4 210.514 377.869 210.044 377.846C205.363 358.463 203.376 338.043 202.249 318.1C202.144 316.233 202.876 313.344 202.772 311.089C202.772 310.939 201.749 308.617 201.734 308.229C201.659 306.362 202.675 292.609 201.995 292.124L175.758 288.488C171.786 286.524 168.852 274.578 158.876 272.383C151.97 270.859 120.82 274.548 118.871 273.42L122.246 263.55C130.69 265.663 160.803 259.734 164.85 253.156C167.732 255.187 170.472 255.046 173.682 255.232L173.667 255.24Z" fill="#335988" />
	<path d="M224.582 269.269C228.92 270.643 234.042 272.159 236.013 276.803C235.766 293.856 249.587 362.45 249.52 369.797C249.505 371.209 249.594 372.142 248.482 373.172C247.422 374.158 242.053 374.852 240.172 374.733C237.282 368.737 227.083 346.51 226.142 343.56C225.933 342.903 226.329 341.522 226.142 340.701C226.09 340.477 224.664 340.245 224.582 339.663C224.052 335.818 229.308 287.637 224.059 277.841C221.67 273.376 212.419 268.649 208.477 265.633C214.763 267.485 222.252 268.53 224.582 269.269Z" fill="#2A4170" />
	<path d="M201.718 308.229C197.992 308.102 190.504 308.266 187.427 306.669C185.8 305.825 174.443 291.213 175.735 288.488L201.972 292.124C202.652 292.609 201.636 306.362 201.711 308.229H201.718Z" fill="#17354A" />
	<path d="M210.03 377.846C210.5 377.869 212.173 380.4 218.863 377.846C218.527 382.072 220.535 384.029 222.499 387.194C228.39 396.692 228.718 395.086 237.566 393.429C238.208 393.309 238.977 393.504 239.642 393.429C239.717 395.557 238.903 401.53 240.941 402.262C245.757 403.986 242.882 395.385 244.055 394.467C249.602 397.483 250.894 399.656 253.149 405.375C247.116 405.442 241.561 405.592 235.483 405.375C235.625 399.484 230.227 401.306 225.351 399.141C219.229 396.423 206.349 389.218 205.871 382.513C206.961 379.504 205.453 377.652 210.03 377.839V377.846Z" fill="#F8C89C" />
	<path d="M258.868 386.164C263.751 392.891 264.326 392.555 264.579 392.921C265.595 394.37 269.097 400.656 268.738 402.269C264.856 400.664 261.137 399.499 257.307 397.595C261.526 394.243 242.202 386.59 241.202 383.304C240.657 381.527 242.553 377.391 240.164 377.331V374.733C242.046 374.852 247.414 374.158 248.474 373.172C252.708 376.443 255.65 381.736 258.868 386.164Z" fill="#F9AC82" />
	<path d="M179.379 226.143C186.771 226.949 194.409 231.556 201.458 226.143C211.56 226.053 222.043 224.246 231.854 227.181C231.764 227.435 231.533 229.421 230.293 232.377C222.931 230.011 225.806 232.863 224.835 233.415C222.035 235.013 208.2 228.495 207.954 237.051C207.461 237.051 206.236 238.089 206.132 238.089C202.899 238.127 192.229 235.872 191.326 239.127C182.642 242.129 173.727 240.755 164.827 240.688C164.656 240.688 164.484 240.688 164.305 240.688L165.343 225.62C169.83 226.158 174.907 225.65 179.372 226.143H179.379Z" fill="#F79B83" />
	<path d="M145.608 158.609C152.679 160.699 164.647 172.295 167.948 160.169C168.239 160.438 173.495 163.514 174.705 164.328C175.272 164.709 177.385 166.232 177.303 166.927C166.477 161.618 175.108 168.83 166.656 189.789C158.144 179.089 153.679 167.442 140.941 160.692C141.83 160.281 145.406 158.766 145.615 158.616L145.608 158.609Z" fill="white" />
	<path d="M227.693 237.574C226.894 239.023 227.454 239.948 226.133 239.65C223.908 238.873 199.097 240.553 191.324 239.127C192.228 235.872 202.897 238.127 206.13 238.089C206.235 238.089 207.459 237.051 207.952 237.051C214.508 237.007 221.108 238.052 227.693 237.574Z" fill="#8D7988" />
	<path d="M230.293 232.377C229.479 234.311 228.695 235.76 227.694 237.574C221.109 238.052 214.509 237.014 207.953 237.051C208.2 228.495 222.042 235.013 224.835 233.415C225.798 232.863 222.931 230.011 230.293 232.377Z" fill="#EB8269" />
	<path d="M165.349 225.628L164.311 240.695C160.697 240.658 157.009 240.867 153.402 240.695L154.44 223.291C154.926 222.432 164.109 225.478 165.349 225.628Z" fill="white" />
	<path d="M166.396 158.086C166.882 158.684 167.412 159.662 167.957 160.162C164.657 172.295 152.688 160.692 145.617 158.601C150.388 155.167 149.813 153.248 149.776 147.693C151.105 149.903 150.769 147.118 151.598 147.17C152.262 147.215 157.235 152.038 163.544 152.882C164.448 157.549 166.12 157.735 166.404 158.079L166.396 158.086Z" fill="#F9AC82" />
	<path d="M165.351 147.693C164.291 150.709 164.515 155.495 166.389 158.086C166.105 157.743 164.44 157.556 163.529 152.89C157.212 152.038 152.247 147.223 151.583 147.178C150.761 147.118 151.097 149.903 149.761 147.7C149.746 145.565 149.425 143.571 149.238 141.466C153.419 141.063 155.547 145.61 165.082 146.663C165.515 146.707 165.291 147.7 165.343 147.7L165.351 147.693Z" fill="#F9AC82" />
	<path d="M148.204 125.876C148.063 126.421 147.144 133.275 147.167 133.671C140.208 129.049 142.485 120.127 148.204 125.876Z" fill="#F49851" />
	<path d="M178.341 126.914L177.303 138.084C176.848 138.89 176.153 139.607 175.742 140.421C174.07 143.758 169.112 147.715 165.349 147.693C165.297 147.693 165.521 146.7 165.088 146.655C155.546 145.602 153.425 141.055 149.244 141.458C149.117 140.002 147.221 134.866 147.168 133.663C147.146 133.268 148.064 126.413 148.206 125.868C149.087 122.531 150.08 120.396 152.619 118.073C153.582 117.2 167.821 109.412 168.724 109.241C175.601 107.927 174.891 115.602 177.296 119.888C177.064 122.344 167.335 120.776 177.034 122.747C179.543 124.3 176.765 125.794 178.333 126.906L178.341 126.914Z" fill="#F9AC82" />
	<path d="M161.974 138.86L171.584 139.637C167.246 145.617 160.459 139.786 161.974 138.86Z" fill="white" />
	<path d="M158.338 125.353C160.989 124.801 161.287 129.355 159.899 130.027C156.509 131.67 156.188 125.801 158.338 125.353Z" fill="#272026" />
	<path d="M172.884 125.353C174.497 124.002 176.408 130.266 174.444 131.065C171.943 132.08 172.391 125.764 172.884 125.353Z" fill="#3C1A1E" />
	<path d="M158.861 120.679C160.407 120.657 161.467 121.418 163.02 121.202V122.24L153.926 121.978C155.061 121.605 158.607 120.679 158.861 120.679Z" fill="#784330" />
	<path d="M257.305 397.588C250.921 394.407 243.798 390.972 240.162 384.596C240.132 382.177 240.184 379.743 240.162 377.324C242.559 377.383 240.655 381.52 241.2 383.297C242.2 386.582 261.523 394.235 257.305 397.588Z" fill="#F9AC82" />
	<path d="M234.455 245.369C235.082 242.801 232.282 244.137 228.22 243.809C227.989 242.621 227.332 240.068 226.145 239.65C227.466 239.948 226.906 239.023 227.705 237.574C228.706 235.76 229.49 234.311 230.303 232.377C231.543 229.428 231.767 227.435 231.864 227.181C231.968 226.897 232.849 226.569 234.462 221.723C236.471 215.69 242.802 185.197 247.708 184.055C251.075 183.271 313.39 183.539 316.802 184.055C318.945 184.376 323.313 186.063 323.813 188.467C324.5 191.752 307.26 238.836 303.811 245.877C280.687 246.28 257.548 245.563 234.455 245.354V245.369Z" fill="#C0CCDA" />
	<path d="M276.273 203.803C290.541 200.757 285.733 218.393 279.909 219.908C267.081 223.246 269.15 205.319 276.273 203.803Z" fill="#F7F5EA" />
	<path d="M273.16 207.962C277.64 214.585 283.725 216.526 278.618 212.375C285.002 204.221 281.642 215.63 279.917 216.272C274.586 218.258 274.288 210.896 273.16 207.962Z" fill="#E5D057" />
	<path d="M439.41 37.5552C449.049 42.6324 457.128 41.5348 454.216 48.2023C451.14 55.2432 445.726 47.5677 445.122 47.4258C440.769 46.4104 440.059 56.8261 432.914 41.4527L439.41 37.5552Z" fill="#F8B51F" />
	<path d="M98.5955 39.1156C100.477 41.9081 107.003 45.828 106.129 49.2476C105.92 50.0614 98.6254 58.4537 92.3611 52.1072C87.0375 46.709 93.705 47.0375 98.5955 39.1156Z" fill="#F9A41B" />
	<path d="M466.422 17.2913C474.613 23.6452 473.142 25.0041 465.9 31.8359C459.337 24.8921 458.269 23.1151 466.422 17.2913Z" fill="#F49851" />
	<path d="M92.8839 0.670868C95.4972 0.260213 100.918 4.84462 100.418 7.16669C100.313 7.64454 95.2284 12.8412 92.3613 12.102C91.988 12.005 86.9481 7.03229 86.9033 6.64403C86.8212 5.85259 91.9954 0.805265 92.8765 0.670868H92.8839Z" fill="#79B2BD" />
	<path d="M180.681 11.0567C183.638 10.3474 187.117 16.0593 187.177 16.5147C187.528 19.1952 182.906 22.8015 179.643 21.4501C172.035 18.3067 179.472 11.3479 180.681 11.0567Z" fill="#79B2BD" />
	<path d="M423.303 9.50373C429.926 8.45096 430.195 19.449 424.341 19.897C418.756 20.3226 417.883 10.3624 423.303 9.50373Z" fill="#F8B51F" />
	<path d="M444.603 3.26922C453.876 0.558901 452.294 16.7312 444.08 11.5794C439.436 8.66747 442.789 3.79934 444.603 3.26922Z" fill="#F8B51F" />
	<path d="M21.1822 125.876C21.5108 125.876 25.58 130.154 25.5949 130.811C25.6248 131.834 21.5481 135.836 20.6596 135.747C20.3311 135.709 16.1797 131.408 16.2469 130.811C16.2842 130.468 20.8313 125.876 21.1822 125.876Z" fill="#F49851" />
	<path d="M37.2864 223.029C37.6522 223.007 42.6473 227.606 42.7443 227.965C43.043 229.085 38.3615 231.795 38.3317 233.423C37.7791 232.377 33.4859 229.324 33.3963 229.01C33.1723 228.189 36.9354 223.059 37.2938 223.037L37.2864 223.029Z" fill="#F8B51F" />
	<path d="M464.345 93.6656C465.569 93.4416 469.078 97.1002 469.28 97.5631C471.908 103.521 459.268 103.701 461.485 96.5253C461.545 96.3312 464.143 93.703 464.345 93.6656Z" fill="#B9C76D" />
	<path d="M429.014 74.4394C429.969 74.2901 434.486 77.2916 433.949 79.3748C433.785 80.0094 429.23 82.996 427.976 82.7496C427.722 82.6974 424.101 79.6286 424.078 79.3748C424.048 79.0239 428.67 74.4917 429.014 74.4394Z" fill="#E5D057" />
	<path d="M144.311 39.6308C147.649 39.3546 150.3 46.8658 145.349 47.941C139.66 49.1804 139.488 40.034 144.311 39.6308Z" fill="#60A2B0" />
	<path d="M317.315 9.50364C321.004 8.77193 325.349 16.4549 318.353 17.2986C311.955 18.0677 314.06 10.1458 317.315 9.50364Z" fill="#F49851" />
	<path d="M127.167 79.6361C129.713 79.2777 132.073 82.1896 132.103 82.4957C132.162 83.0931 128.504 86.9084 128.205 86.9084C127.518 86.9084 120.627 80.5545 127.167 79.6361Z" fill="#EFBF4A" />
	<path d="M61.1874 45.3501C64.1292 45.3501 61.8146 52.8539 60.1496 53.1451C59.8584 53.1973 54.7588 51.4502 54.6916 50.8081C54.6542 50.3825 60.7618 45.3501 61.1874 45.3501Z" fill="#F8B51F" />
	<path d="M71.3206 39.6308C69.2823 39.1828 70.4097 36.1813 68.2071 37.0325C68.1623 36.9205 66.5794 36.3381 66.6466 35.2107C66.9677 30.1111 74.2101 31.6268 73.9189 35.7333C73.904 35.9648 72.4107 37.8687 71.3206 39.6308Z" fill="#E5D057" />
	<path d="M390.055 77.5605C394.437 76.8735 394.893 83.795 390.577 84.3176C385.97 84.8701 387.277 78.001 390.055 77.5605Z" fill="#9DC2BC" />
	<path d="M409.274 108.733C409.849 108.673 413.717 112.339 413.687 112.63C413.553 114.027 409.297 115.669 407.714 114.967C403.219 112.981 408.834 108.778 409.274 108.733Z" fill="#F1AD62" />
	<path d="M57.5506 263.035C65.48 262.184 59.0065 269.254 58.0732 269.269C57.4013 269.277 53.6755 265.67 53.6606 265.372C53.6158 264.55 57.3341 263.057 57.558 263.035H57.5506Z" fill="#E5D057" />
	<path d="M39.3701 135.747C43.8351 133.94 45.7763 140.48 41.9684 141.458C37.8395 142.526 37.0555 136.68 39.3701 135.747Z" fill="#ECE9D0" />
	<path d="M222.76 156.01C230.196 160.431 224.85 163.753 224.32 163.805C224.081 163.828 220.923 160.67 220.945 160.431C220.968 160.132 222.013 159.684 222.767 156.018L222.76 156.01Z" fill="#E5D057" />
	<path d="M487.208 131.588C488.246 131.618 489.918 139.286 487.73 139.898C485.677 140.473 483.99 134.111 487.208 131.588Z" fill="white" />
	<path d="M140.159 18.3291C140.913 17.8214 147.334 24.9668 138.859 24.3022C139.121 22.7866 138.65 19.3445 140.159 18.3291Z" fill="#F7F5EA" />
	<path d="M457.074 62.4932C458.403 62.3438 462.084 69.885 462.01 71.0647C461.778 74.8576 455.394 62.6798 457.074 62.4932Z" fill="#EFBF4A" />
	<path d="M197.825 145.095C202.559 144.796 199.587 149.649 198.348 149.769C196.713 149.933 193.442 145.371 197.825 145.095Z" fill="#EFBF4A" />
	<path d="M76.7758 59.8948C79.7698 60.2457 77.8509 64.076 77.2984 64.5688C77.0819 64.7555 73.0052 63.3518 73.9236 61.194C73.9833 61.0521 76.6264 59.8799 76.7832 59.8948H76.7758Z" fill="#ECE9D0" />
	<path d="M313.681 80.674C316.376 80.1961 316.391 84.6387 314.718 87.9463C314.241 86.3485 311.291 81.0921 313.681 80.674Z" fill="#E5D057" />
	<path d="M33.6497 215.234C35.7851 214.771 36.2257 220.961 34.6876 222.507C33.9036 222.873 32.3207 215.518 33.6497 215.234Z" fill="#F9DCAD" />
	<path d="M497.081 186.66C498.403 186.048 499.224 188.251 499.418 188.997C501.143 195.687 493.385 188.37 497.081 186.66Z" fill="#ECE9D0" />
	<path d="M477.332 116.52C477.862 116.483 478.168 116.431 478.631 116.782C481.804 119.171 479.512 128.123 477.332 116.52Z" fill="#ECE9D0" />
	<path d="M259.131 41.714C264.372 41.5647 257.108 46.948 256.271 43.5358C255.95 42.2366 258.048 41.7513 259.131 41.714Z" fill="#F2D08A" />
	<path d="M155.22 65.0915C157.371 63.8072 160.693 70.3478 153.398 67.4285C156.28 67.0551 153.712 65.9874 155.22 65.0915Z" fill="#E5D057" />
	<path d="M385.375 120.164C387.996 121.038 388.354 124.338 386.936 126.399L385.375 120.164Z" fill="#E5D057" />
	<path d="M409.273 42.2291C405.689 47.1495 414.933 44.8275 408.235 46.9031C405.779 44.8872 406.914 43.4835 409.273 42.2291Z" fill="#E5D057" />
	<path d="M443.043 80.674C449.957 81.1593 450.42 84.7581 443.043 81.7118V80.674Z" fill="#E5D057" />
	<path d="M477.33 40.6687C477.629 40.5044 481.183 45.2904 481.227 45.604C481.743 49.5911 476.389 41.1764 477.33 40.6687Z" fill="#E5D057" />
	<path d="M71.3202 39.6308C70.5213 40.9225 71.0589 41.9603 70.021 41.7065C69.4611 40.1236 68.804 38.593 68.1992 37.0325C70.4018 36.1813 69.2819 39.1828 71.3127 39.6308H71.3202Z" fill="#737331" />
	<path d="M461.748 87.4311C464.757 87.3564 461.86 90.9702 460.711 90.5446C458.919 89.8875 460.524 87.4535 461.748 87.4311Z" fill="#EDE5A7" />
	<path d="M134.965 69.7655C138.937 69.4145 131.866 75.1786 131.59 72.6251C131.568 72.4086 134.748 69.7879 134.965 69.7655Z" fill="#E5D057" />
	<path d="M296.539 48.4636C297.256 48.7548 301.519 47.7319 301.474 49.2401C301.459 49.7852 296.703 51.1068 296.539 48.4636Z" fill="#E6A93F" />
	<path d="M180.157 40.6686C180.941 40.8254 181.015 41.9678 180.157 42.2291C173.071 44.3571 173.728 39.3993 180.157 40.6686Z" fill="#E59B45" />
	<path d="M110.026 81.1966C112.303 81.1145 115.514 84.6386 108.465 82.7571C107.838 82.3166 109.914 81.2041 110.026 81.1966Z" fill="#D7C478" />
	<path d="M218.086 38.0778C218.213 38.0853 218.273 39.5263 219.908 39.8996C213.442 42.9011 217.033 37.9957 218.086 38.0778Z" fill="#F2D08A" />
	<path d="M40.9225 64.5688C42.5427 65.4275 40.034 67.1224 38.8468 70.2807L38.0703 69.5042L40.93 64.5688H40.9225Z" fill="#E6A93F" />
	<path d="M127.169 44.8275C127.729 44.835 128.319 44.6782 128.469 45.0888C124.384 48.5533 118.113 44.6931 127.169 44.8275Z" fill="#F49851" />
	<path d="M26.3777 95.7412C27.983 95.674 26.4299 101.117 25.3398 101.453L26.3777 95.7412Z" fill="#E5D057" />
	<path d="M463.822 75.4773C466.659 84.6834 462.202 80.2409 463.046 76.2538C463.083 76.0821 463.598 75.7834 463.822 75.4773Z" fill="#F9A41B" />
	<path d="M473.179 107.172C475.882 113.452 465.123 108.322 472.656 109.248L473.179 107.172Z" fill="#EDE5A7" />
	<path d="M65.8629 254.202C67.5354 254.187 65.5269 259.294 64.8251 258.876C64.1232 258.465 65.2432 254.202 65.8629 254.202Z" fill="#E5D057" />
	<path d="M238.35 10.5415L241.209 12.8785C238.865 13.7073 236.595 13.0726 238.35 10.5415Z" fill="#DDD57C" />
	<path d="M471.619 261.474C473.672 261.975 470.619 265.043 470.059 264.588C468.76 263.535 470.589 261.22 471.619 261.474Z" fill="#ECE9D0" />
	<path d="M449.278 55.2208C452.787 54.728 453.452 61.2163 449.278 56.7813C448.756 56.2288 448.143 55.385 449.278 55.2208Z" fill="#F8B51F" />
	<path d="M23.2642 114.445C23.5703 114.624 23.7122 118.282 23.5255 118.857C22.3682 122.359 22.0024 113.713 23.2642 114.445Z" fill="#F49851" />
	<path d="M275.758 47.9485C276.415 49.3372 279.148 48.8295 279.133 49.7703C279.111 51.1665 274.608 50.7783 275.758 47.9485Z" fill="#F2D08A" />
	<path d="M32.0968 80.674L32.8733 81.4505C30.6782 88.1852 29.73 85.8631 32.0968 80.674Z" fill="#DEB670" />
	<path d="M47.6808 56.7813C49.1591 56.7067 48.1287 57.2816 46.9042 58.6031C43.2531 62.5156 44.0297 59.0885 47.6808 56.7813Z" fill="#F1AD62" />
	<path d="M57.5497 291.086C58.5801 290.959 58.1844 291.601 57.8111 292.385C55.8922 296.38 52.8608 295.066 57.5497 291.086Z" fill="#F2D08A" />
	<path d="M485.647 293.684C489.26 292.161 486.796 296.283 486.169 296.283C485.863 296.283 484.295 294.259 485.647 293.684Z" fill="#EDE5A7" />
	<path d="M248.223 40.6687C253.696 40.2954 253.658 42.0873 248.223 41.7065V40.6687Z" fill="#F9A41B" />
	<path d="M230.558 39.6309C235.194 38.817 238.577 41.154 230.035 40.6687C229.497 40.497 230.378 39.6607 230.558 39.6309Z" fill="#F1AD62" />
	<path d="M403.037 81.1966C407.047 81.5027 401.104 84.34 400.7 82.4957C400.641 82.2269 402.903 81.1891 403.037 81.1966Z" fill="#EDE5A7" />
	<path d="M34.1754 208.485C35.7508 207.574 33.9663 217.43 33.9141 208.746C33.9887 208.642 34.0709 208.545 34.1754 208.485Z" fill="#F8B51F" />
	<path d="M43.5237 250.566C43.8597 250.409 45.3231 253.157 45.8607 253.425C44.9797 255.494 42.583 251.014 43.5237 250.566Z" fill="#E5D057" />
	<path d="M37.8103 236.536C38.1538 236.633 38.9228 239 38.5868 239.911C37.6162 242.577 36.8023 236.253 37.8103 236.536Z" fill="#DDD57C" />
	<path d="M156.266 41.7141C158.685 41.0421 163.523 43.2969 155.743 42.7519C155.213 42.6026 156.02 41.7813 156.266 41.7141Z" fill="#D77328" />
	<path d="M41.4473 124.838C42.612 124.569 42.403 127.115 41.9699 127.436C40.387 128.601 40.7678 125.742 41.4473 124.838Z" fill="#ECE9D0" />
	<path d="M193.148 40.1535C196.195 40.2804 194.022 41.9903 189.773 40.93C192.7 40.7434 192.977 40.146 193.148 40.1535Z" fill="#F49851" />
	<path d="M24.3034 104.574C24.7289 104.82 24.7215 107.479 24.3034 107.688C22.9071 108.389 23.6015 104.163 24.3034 104.574Z" fill="#E5D057" />
	<path d="M347.967 77.0378C349.736 76.8288 350.371 79.009 347.967 78.5983C347.123 78.449 347.213 77.1274 347.967 77.0378Z" fill="#EDE5A7" />
	<path d="M35.2109 198.607C35.853 198.233 36.5922 201.899 35.2109 201.205C34.7928 200.996 34.7853 198.853 35.2109 198.607Z" fill="#F9DCAD" />
	<path d="M110.54 78.5982C111.66 78.0383 111.66 81.2414 110.54 80.6739C110.122 80.4649 110.122 78.8073 110.54 78.5982Z" fill="#ECE9D0" />
	<path d="M486.685 291.086C488.223 291.818 485.02 292.721 484.863 291.863C484.848 291.766 486.596 291.041 486.685 291.086Z" fill="#ECE9D0" />
	<path d="M285.105 53.6603C286.195 53.287 286.949 54.1979 286.143 54.6981C285.68 54.9893 284.493 53.8693 285.105 53.6603Z" fill="#F9DCAD" />
	<path d="M26.378 141.981C26.4676 141.944 27.1172 143.146 26.9006 143.542C26.0644 145.027 25.7508 142.257 26.378 141.981Z" fill="#F27F32" />
	<path d="M262.766 35.9946C262.834 35.9573 264.095 36.7039 264.065 36.7711C263.685 37.6746 261.557 36.6218 262.766 35.9946Z" fill="#EDE5A7" />
	<path d="M315.241 51.062L315.502 51.3233V51.8385L315.241 52.0998H314.718L314.457 51.8385L314.718 51.5847L314.98 51.3233L315.241 51.062Z" fill="#EDE5A7" />
	<path d="M47.6793 212.636H48.2019L48.4558 212.897V213.42L48.2019 213.674L47.9406 213.42L47.6793 213.159L47.418 212.897L47.6793 212.636Z" fill="#EDE5A7" />
	<path d="M121.709 319.66C119.476 339.954 116.229 360.173 113.914 380.445C107.918 382.252 100.721 381.692 96.2483 386.679C94.1727 387.814 96.2035 387.605 96.2483 387.717C97.9283 391.973 95.1657 391.465 96.771 394.989C92.3284 394.915 87.0945 394.519 82.7415 394.989C85.7878 385.97 88.1846 371.112 89.4987 361.219C89.5659 360.718 89.4315 360.158 89.4987 359.658C89.5659 359.15 92.0671 354.058 89.76 349.787C82.5474 349.802 75.3945 349.399 68.1969 349.265C68.727 344.852 67.6145 339.148 67.6742 337.318H68.1969L71.833 339.917C71.7658 340.051 71.8928 340.283 71.833 340.439C68.6224 348.137 72.0495 343.083 73.1322 343.038C74.9092 342.963 88.1846 356.604 103.528 335.504C107.254 330.382 106.328 330.942 105.604 328.493C105.201 327.112 105.111 327.508 105.081 327.455C104.036 325.223 100.318 320.295 97.8088 319.66C97.6446 319.623 97.4579 319.69 97.2862 319.66C95.3673 319.317 90.3349 319.571 88.192 320.183C87.5424 316.569 89.6106 316.681 88.9685 311.873C96.0467 320.474 111.234 319.578 121.701 319.668L121.709 319.66Z" fill="white" />
	<path d="M409.536 295.76C409.589 296.089 409.477 296.469 409.536 296.798C409.2 296.761 408.76 296.873 408.498 296.798C402.861 295.148 401.137 299.434 395.768 298.874L395.507 299.912C395.313 301.143 396.022 300.89 396.029 300.949C396.328 304.608 397.642 307.572 399.143 310.82C399.613 311.835 400.151 311.791 400.181 311.858C401.674 314.83 401.988 314.971 403.294 317.055C403.675 317.659 403.936 318.04 404.332 318.615C404.482 318.832 404.706 319.451 404.855 319.653C405.243 320.183 405.355 320.146 405.377 320.175C408.26 323.954 407.125 323.983 411.612 327.448C412.889 328.433 413.098 328.433 413.172 328.486C418.66 332.42 423.125 330.546 420.967 340.955C407.155 341.604 411.575 342.097 413.695 356.537C414.681 363.242 418.377 389.427 420.967 393.421H405.385C405.124 381.96 400.42 350.609 398.628 335.235C398.247 331.965 398.486 328.404 398.105 325.103C397.881 323.117 396.209 320.273 396.029 318.608C394.193 302.122 393.588 285.449 391.355 268.993H406.938C407.812 277.885 408.192 286.92 409.536 295.745V295.76Z" fill="white" />
	<path d="M240.167 374.733V377.331C240.189 379.75 240.137 382.184 240.167 384.604C240.197 387.336 239.547 390.472 239.644 393.436C238.98 393.511 238.203 393.317 237.569 393.436C242.482 383.999 232.984 387.986 222.501 387.202C220.538 384.036 218.529 382.072 218.865 377.854C218.977 376.48 223.965 360.285 225.1 351.102C225.495 347.928 224.189 344.12 226.138 343.568C227.078 346.517 237.277 368.745 240.167 374.74V374.733Z" fill="white" />
	<path d="M424.601 268.224C424.743 268.791 425.348 269.038 425.124 269.784C423.459 278.124 423.944 290.511 428.237 297.836C424.489 296.895 422.331 295.969 418.367 295.76C418.195 295.753 418.023 295.76 417.844 295.76L414.73 268.485L424.601 268.224Z" fill="white" />
	<path d="M119.373 105.612C119.597 105.589 123.159 107.747 123.271 107.949C124.443 110.092 119.246 113.422 118.858 113.407C114.326 113.168 117.984 105.769 119.381 105.612H119.373Z" fill="#E5D057" />
	<path d="M118.858 108.21C118.962 108.158 121.142 108.367 121.195 108.471C121.673 109.42 119.059 111.816 118.858 111.846C118.604 111.891 116.991 109.143 118.858 108.21Z" fill="#EDE5A7" />
	<path d="M196.008 318.1H202.243C203.37 338.043 205.356 358.463 210.037 377.846C205.461 377.66 206.969 379.511 205.879 382.52C204.281 386.94 203.952 389.053 204.318 393.951C202.25 390.517 200.279 392.764 196.523 392.914C194.47 387.277 198.703 384.648 194.186 382.005C192.327 380.915 158.243 373.314 152.367 371.358C152.225 363.839 150.485 330.3 151.844 326.679C154.106 320.661 172.399 329.008 176.782 319.145C177.282 319.145 178.499 318.107 178.604 318.107C184.398 318.01 190.214 318.182 196.008 318.107V318.1Z" fill="white" />
	<path d="M168.732 354.991C169.524 354.29 169.18 359.442 168.21 357.59C168.135 357.448 168.471 355.215 168.732 354.991Z" fill="#EDE5A7" />
	<path d="M167.688 359.143C168.33 360.106 169.554 360.337 169.509 360.442C169.114 361.256 165.739 360.509 167.688 359.143Z" fill="#F2D08A" />
	<path d="M96.2568 387.717C96.212 387.605 94.1811 387.814 96.2568 386.679V387.717Z" fill="#A3937C" />
	<path d="M122.758 377.331C125.304 359.524 126.812 341.522 130.03 323.819C133.099 325.38 139.057 322.975 141.976 325.641L142.499 370.843L122.758 377.339V377.331Z" fill="white" />
	<path d="M155.48 392.399C153.838 393.623 154.786 391.54 154.181 391.361C152.143 390.748 125.421 391.719 120.672 392.921C121.239 390.375 121.299 387.702 121.71 385.126C127.183 386.396 158.333 376.547 158.079 385.388C158.064 385.776 155.07 387.62 155.48 392.399Z" fill="white" />
	<path d="M185.093 391.353C180.889 390.562 169.6 392.137 167.166 391.876C166.763 391.831 167.129 390.741 166.389 390.838C166.449 388.8 165.889 386.799 165.352 384.865C165.673 384.417 171.347 384.551 172.363 384.604C192.656 385.716 185.25 389.696 185.093 391.361V391.353Z" fill="white" />
	<path d="M237.567 393.436C228.72 395.094 228.399 396.699 222.5 387.202C232.983 387.986 242.48 383.999 237.567 393.436Z" fill="#ECE9D0" />
	<path d="M388.231 312.911C384.879 311.895 379.339 311.992 375.762 311.873C375.471 302.473 378.801 283.948 365.631 281.738C347.241 278.647 350.13 300.427 350.302 311.873C345.725 311.977 340.245 311.888 335.757 312.395C328.903 313.164 322.803 317.525 321.728 324.603C321.265 327.649 321.399 379.661 321.728 386.164H258.868C255.657 381.736 252.715 376.443 248.474 373.172C249.594 372.135 249.505 371.209 249.512 369.798C249.572 362.443 235.759 293.849 236.005 276.803C234.034 272.159 228.912 270.643 224.574 269.269L381.213 268.231L388.224 312.911H388.231Z" fill="#F7F5EA" />
	<path d="M299.65 311.35C300.8 310.559 299.829 313.493 304.063 314.725C300.053 315.277 297.627 312.746 299.65 311.35Z" fill="#F9DCAD" />
	<path d="M302.246 307.714C304.247 307.535 301.97 312.201 299.387 310.051L302.246 307.714Z" fill="#F9DCAD" />
	<path d="M304.332 309.79C304.579 309.812 305.258 313.12 304.332 312.903C303.466 312.709 303.989 309.752 304.332 309.79Z" fill="#EFBF4A" />
	<path d="M375.763 311.865C375.606 311.865 375.942 312.478 372.65 312.388C372.15 305.31 375.382 287.002 365.639 284.852C350.011 281.402 353.767 302.831 353.431 311.865C352.386 311.888 351.281 311.843 350.318 311.865C350.138 300.419 347.256 278.647 365.646 281.731C378.81 283.941 375.487 302.458 375.778 311.865H375.763Z" fill="#E55235" />
	<path d="M372.649 312.388C366.407 312.216 359.597 311.746 353.422 311.865C353.758 302.823 350.003 281.402 365.63 284.852C375.381 287.002 372.141 305.31 372.641 312.388H372.649Z" fill="white" />
	<path d="M427.462 120.164C429.082 119.806 459.09 119.813 460.71 120.164C461.785 120.396 464.757 122.628 465.123 123.539C466.079 125.883 465.974 158.407 464.346 159.124C457.94 157.959 423.699 161.812 422.004 156.264C423.602 148.611 417.778 122.285 427.462 120.157V120.164Z" fill="#F9A41B" />
	<path d="M447.457 143.019C446.725 142.705 447.673 140.682 446.934 138.86C443.156 129.46 435.421 138.203 438.878 139.383C441.596 140.301 441.028 136.605 443.29 137.307C445.777 141.078 442.768 142.325 439.132 143.019C438.96 142.974 438.758 143.071 438.609 143.019C432.778 136.486 442.82 133.619 437.571 134.186C442.424 127.914 451.743 134.649 452.116 136.008C453.452 140.839 451.093 142.235 447.442 143.019H447.457Z" fill="white" />
	<path d="M446.944 138.86C447.675 140.682 446.735 142.705 447.466 143.019C444.39 143.684 442.24 143.84 439.156 143.019C442.792 142.317 445.801 141.07 443.315 137.307C446.197 138.196 444.577 141.511 446.951 138.868L446.944 138.86Z" fill="#75A496" />
	<path d="M438.633 143.019C434.16 141.302 435.191 137.285 437.595 134.186C442.844 133.619 432.802 136.486 438.633 143.019Z" fill="#7FA34C" />
	<path d="M446.168 133.671C451.88 133.29 453.948 139.808 448.766 142.504C449.535 137.441 447.714 137.606 446.168 133.671Z" fill="#559395" />
	<path d="M446.943 138.86C444.569 141.503 446.189 138.196 443.307 137.3C441.045 136.598 441.605 140.301 438.894 139.375C435.43 138.203 443.165 129.452 446.951 138.853L446.943 138.86Z" fill="#ABB36C" />
	<path d="M387.718 217.31C387.949 218.296 388.091 219.879 388.241 220.946C389.241 228.174 388.27 237.738 389.278 245.362C385.299 245.369 381.304 245.362 377.332 245.362C378.295 245.279 378.818 242.173 378.892 241.464C379.505 235.252 380.729 219.498 380.968 213.666C380.968 213.584 381.543 214.092 381.491 212.106C386.568 213.106 386.449 211.845 387.725 217.303L387.718 217.31Z" fill="white" />
	<path d="M330.561 120.679L336.273 125.876C335.489 126.966 334.593 129.139 333.675 130.289C333.436 132.372 340.439 144.841 331.338 159.124C319.496 150.889 309.065 140.809 297.828 131.849C297.365 129.49 307.214 122.568 309.521 121.717C322.281 116.998 324.245 124.696 330.561 120.679Z" fill="#115F62" />
	<path d="M344.074 118.081C344.081 118.745 342.834 119.059 343.036 119.903C356.274 128.967 381.921 152.009 391.874 158.609C391.904 159.072 391.411 159.132 391.351 159.647C391.217 160.946 391.314 162.499 391.351 163.806C375.403 148.783 357.446 136.03 340.438 122.24C340.669 121.964 342.909 117.021 344.074 118.081Z" fill="#265661" />
	<path d="M344.077 118.081C342.912 117.021 340.672 121.963 340.441 122.24C338.978 123.979 336.678 125.323 336.282 125.876L330.57 120.679C334.625 118.103 337.783 106.881 343.562 114.706C345.436 117.245 344.077 117.894 344.085 118.081H344.077Z" fill="#115F62" />
	<path d="M334.72 225.628C336.937 225.501 339.244 225.628 341.477 225.628C345.628 225.62 349.794 225.628 353.946 225.628C353.55 232.168 354.356 238.836 353.423 245.369C350.25 245.369 329.852 247.012 329.008 245.108V226.404C329.583 225.113 332.696 225.74 334.72 225.628Z" fill="#F68D5F" />
	<path d="M341.478 225.628C339.253 225.628 336.938 225.501 334.72 225.628C332.899 210.68 338.334 218.266 339.917 216.018C340.641 214.988 338.633 209.851 340.178 209.523C341.829 210.478 344.487 215.653 344.591 216.534C345.823 226.755 335.549 212.92 341.478 225.628Z" fill="#F9AC82" />
	<path d="M381.483 212.121C381.535 214.107 380.968 213.599 380.96 213.681C379.751 213.696 378.534 213.659 377.324 213.681C377.556 211.583 377.683 209.276 378.885 207.447C378.915 207.395 379.893 206.977 379.923 206.924C379.624 208.447 381.468 211.718 381.483 212.121Z" fill="#B9C76D" />
	<path d="M364.334 213.674C364.849 213.674 365.38 213.674 365.895 213.674C366.41 213.674 366.933 213.674 367.455 213.674C369.18 213.674 370.942 213.689 372.652 213.674C374.183 213.659 375.773 213.704 377.326 213.674C378.535 213.652 379.753 213.689 380.962 213.674C380.723 219.505 379.491 235.259 378.886 241.472C378.819 242.181 378.289 245.287 377.326 245.369C369.359 245.362 361.378 245.362 353.426 245.369C354.359 238.828 353.545 232.168 353.948 225.628C354.172 221.902 353.06 215.391 356.024 213.681C357.234 213.667 358.451 213.696 359.66 213.681C361.467 213.659 360.721 213.151 361.221 213.159C361.378 213.159 360.691 213.667 364.334 213.681V213.674Z" fill="#F8B51F" />
	<path d="M377.841 206.924C377.43 207.447 374.839 208.35 374.727 208.485C373.018 208.843 372.054 205.409 372.129 204.326C372.129 204.244 372.495 203.221 372.652 202.765C372.697 202.639 373.301 202.915 374.212 200.69C374.638 199.652 375.885 199.167 376.288 198.353C376.445 198.039 376.788 190.618 379.401 193.156C380.141 193.873 380.551 203.49 377.841 206.924Z" fill="#ABB36C" />
	<path d="M370.567 200.167C370.335 201.802 369.409 203.288 369.006 204.841C368.73 205.901 369.17 208.671 367.446 210.038C368.006 207.268 366.453 192.641 367.446 191.596C367.849 191.17 370.776 191.17 371.082 191.596C371.59 192.305 370.776 198.674 370.559 200.167H370.567Z" fill="#1C272D" />
	<path d="M372.127 204.326C372.052 205.409 373.016 208.836 374.725 208.485C373.314 210.135 373.441 211.86 372.65 213.681C370.94 213.696 369.185 213.681 367.453 213.681V210.045C369.178 208.679 368.737 205.916 369.014 204.849C371.963 201.84 369.223 205.804 372.127 204.326Z" fill="#CFB02C" />
	<path d="M365.893 213.674C365.378 213.674 364.848 213.674 364.333 213.674C360.189 191.917 368.648 190.834 365.893 213.674Z" fill="#D85A4C" />
	<path d="M360.181 203.288H359.658L356.022 204.326C356.015 204.162 354.006 203.714 354.462 201.466C357.478 197.845 356.343 184.876 359.658 197.308C360.106 198.98 359.965 201.631 360.181 203.281V203.288Z" fill="#DF7844" />
	<path d="M359.66 203.288V213.681C358.451 213.696 357.234 213.666 356.024 213.681C355.912 210.583 356.181 207.425 356.024 204.333L359.66 203.296V203.288Z" fill="#A4C9A1" />
	<path d="M378.887 207.44C377.685 209.269 377.558 211.576 377.326 213.674C375.773 213.704 374.183 213.659 372.652 213.674C373.451 211.852 373.317 210.127 374.728 208.477C374.84 208.343 377.431 207.44 377.842 206.917L378.879 207.44H378.887Z" fill="white" />
	<path d="M355.247 191.334C356.643 192.954 356.008 199.346 353.171 198.091C351.088 197.165 354.963 192.924 355.247 191.334Z" fill="#EE6636" />
	<path d="M374.203 200.69C373.292 202.915 372.687 202.646 372.642 202.766C372.888 201.922 372.157 201.735 372.119 201.205C372.052 200.182 373.508 194.635 374.456 193.41L374.195 200.682L374.203 200.69Z" fill="#F2D08A" />
	<path d="M372.129 201.205C372.159 201.735 372.891 201.922 372.652 202.766C372.502 203.221 372.137 204.236 372.129 204.326C369.217 205.804 371.965 201.832 369.016 204.849C369.419 203.296 370.345 201.81 370.576 200.175L372.137 201.213L372.129 201.205Z" fill="#D7C478" />
	<path d="M361.221 213.159C360.72 213.151 361.467 213.652 359.66 213.681V203.288H360.183C360.608 206.573 360.646 209.896 361.221 213.159Z" fill="#7D9868" />
	<path d="M416.809 220.431C416.771 224.62 416.487 230.66 416.809 234.46C416.898 235.528 416.241 235.61 416.286 236.021C407.416 235.446 407.879 237.119 407.976 245.369C401.749 245.376 395.499 245.354 389.272 245.369C388.264 237.738 389.235 228.174 388.234 220.954L416.809 220.431Z" fill="#A25833" />
	<path d="M398.627 216.795C401.218 216.75 403.831 216.787 406.422 216.795C409.64 216.81 412.783 215.944 416.031 216.272C416.509 216.414 417.226 217.818 417.33 217.833C416.554 217.758 416.823 219.012 416.808 220.431L388.234 220.954C388.084 219.886 387.942 218.303 387.711 217.317C389.391 217.489 392.639 216.287 392.908 216.28C393.191 216.265 393.819 216.877 398.619 216.802L398.627 216.795Z" fill="#784330" />
	<path d="M416.291 236.014C418.3 237.783 418.815 242.614 418.89 245.361C415.216 245.421 411.662 245.361 407.981 245.361C407.884 237.104 407.421 235.439 416.291 236.014Z" fill="#4B8CB2" />
	<path d="M418.882 245.369C418.807 242.621 418.292 237.791 416.283 236.021C416.239 235.61 416.896 235.536 416.806 234.461C425.609 233.199 425.116 238.552 425.378 245.892C421.473 246.317 419.21 245.369 418.882 245.369Z" fill="#F2D08A" />
	<path d="M394.989 200.167C394.974 200.518 396.191 202.526 395.766 202.765C385.895 203.908 394.235 203.116 396.288 203.803C397.886 204.341 399.088 209.119 399.663 210.56C400.156 211.785 399.924 211.748 401.224 212.636C399.768 214.742 400.357 217.489 398.625 215.234C398.834 214.047 399.514 213.465 398.887 212.636C398.7 212.397 393.421 210.381 393.175 210.56C392.697 210.904 392.697 215.272 392.913 216.272C392.652 216.28 389.397 217.489 387.717 217.31C386.44 211.852 386.56 213.114 381.482 212.113C381.475 211.71 379.631 208.44 379.922 206.917C380.355 206.192 380.594 207.365 384.081 199.644L394.989 200.167Z" fill="#7FA34C" />
	<path d="M390.831 165.881C392.81 168.345 393.81 176.64 391.869 179.127C397.984 191.028 387.859 183.271 381.476 182.501C379.975 173.93 385.097 158.743 390.824 165.874L390.831 165.881Z" fill="#558F63" />
	<path d="M414.73 190.296C414.603 190.364 414.208 191.499 412.655 192.372C409.004 194.44 408.384 194 404.86 194.97C402.067 195.739 399.103 195.665 396.55 197.569C396.049 195.366 395.728 193.589 395.512 191.334C396.564 190.685 397.572 189.908 398.625 189.259C405.106 188.691 407.503 183.913 409.019 178.35C412.976 182.8 412.923 184.794 414.73 190.296Z" fill="#7FA34C" />
	<path d="M402.26 173.153C402.447 173.191 404.762 174.878 405.374 175.229C410.906 182.897 404.224 185.779 398.617 189.259C397.564 189.916 396.556 190.685 395.503 191.334C395.189 188.071 395.652 186.406 394.98 183.024C395.652 179.433 398.064 172.384 402.253 173.153H402.26Z" fill="#558F63" />
	<path d="M402.26 172.631C397.676 172.399 400.55 166.568 395.764 161.2L398.624 172.892C393.927 181.493 396.951 174.236 393.95 175.752C393.569 170.779 392.755 160.826 391.352 159.647C391.404 159.131 391.904 159.072 391.874 158.609C397.332 162.23 411.645 164.156 402.268 172.638L402.26 172.631Z" fill="#478253" />
	<path d="M393.949 175.752C394.159 178.432 393.24 181.68 394.987 183.024C395.652 186.414 395.196 188.071 395.51 191.334C395.726 193.589 396.055 195.366 396.548 197.569C397.765 202.952 398.519 205.087 401.222 210.038C401.147 210.068 401.438 210.799 399.661 210.56C399.086 209.119 397.884 204.341 396.286 203.803C394.241 203.116 385.901 203.908 395.764 202.765C396.189 202.526 394.972 200.518 394.987 200.167C395.159 195.142 396.376 193.261 390.313 193.933V192.895C395.995 193.97 398.161 187.108 382.003 183.024C381.996 182.987 381.607 183.218 381.48 182.501C387.857 183.27 397.989 191.028 391.874 179.127C393.815 176.633 392.815 168.345 390.836 165.881C392.747 165.963 391.396 165.12 391.359 163.805C391.321 162.506 391.224 160.946 391.359 159.647C392.755 160.826 393.576 170.779 393.957 175.752H393.949Z" fill="#C4D093" />
	<path d="M390.306 192.895C387.357 192.335 382.87 186.496 381.996 183.024C398.154 187.108 395.988 193.97 390.306 192.895Z" fill="#558F63" />
	<path d="M394.991 200.167L384.082 199.644C385.015 197.576 383.082 194.731 390.317 193.933C396.379 193.261 395.162 195.142 394.991 200.167Z" fill="#558F63" />
	<path d="M402.262 172.631V173.153C398.074 172.384 395.662 179.44 394.99 183.024C393.243 181.68 394.154 178.432 393.952 175.752C396.954 174.244 393.93 181.501 398.626 172.892L395.767 161.2C400.553 166.561 397.678 172.399 402.262 172.631Z" fill="#93B36B" />
	<path d="M409.01 178.35C407.495 183.913 405.098 188.691 398.617 189.259C404.224 185.779 410.899 182.897 405.374 175.229C408.443 176.976 407.846 177.036 409.01 178.343V178.35Z" fill="#C4D093" />
	<path d="M398.624 215.234C398.535 215.727 398.677 216.287 398.624 216.795C393.824 216.877 393.196 216.265 392.913 216.272C392.696 215.272 392.696 210.904 393.174 210.56C393.42 210.381 398.707 212.397 398.886 212.636C399.513 213.465 398.833 214.047 398.624 215.234Z" fill="#528375" />
	<path d="M434.473 191.857C433.465 193.686 431.225 196.128 430.837 198.353C429.396 206.558 432.868 212.815 432.398 213.42C431.36 214.734 428.956 212.569 428.5 212.644C427.873 212.741 424.222 218.55 417.33 217.84C417.226 217.833 416.509 216.429 416.031 216.28C412.783 215.951 409.64 216.81 406.422 216.802C406.765 214.697 406.683 212.278 409.02 211.606C411.439 210.911 416.509 213.039 415.777 210.045C420.444 212.24 421.041 210.672 426.171 210.822C421.683 201.496 415.859 203.706 419.414 199.129C420.436 198.614 421.556 198.196 422.527 197.569C426.425 195.59 430.568 193.776 434.473 191.857Z" fill="#558F63" />
	<path d="M434.473 191.857C430.56 193.783 426.416 195.59 422.526 197.569C422.108 197.778 421.377 196.598 419.413 199.129C415.127 201.294 413.992 203.318 412.141 202.243C412.141 202.026 411.013 200.212 411.103 198.084C411.207 195.695 411.999 194.493 412.663 192.372C414.216 191.491 414.612 190.364 414.739 190.296C421.212 186.832 426.088 181.867 436.041 190.035C435.593 190.513 434.742 191.386 434.48 191.857H434.473Z" fill="#639659" />
	<path d="M409.014 211.598C406.677 212.27 406.759 214.689 406.415 216.795C403.824 216.787 401.211 216.75 398.62 216.795C398.673 216.295 398.531 215.727 398.62 215.234C400.353 217.489 399.755 214.742 401.219 212.636C402.495 210.799 401.577 210.971 401.995 210.56C402.458 210.105 405.691 209.597 406.93 209L409.006 211.598H409.014Z" fill="#7FA34C" />
	<path d="M415.77 210.038C416.51 213.032 411.44 210.896 409.013 211.598L406.938 209C407.968 208.507 409.864 206.364 410.835 206.402C412.418 207.171 414.419 209.403 415.77 210.038Z" fill="#478253" />
	<path d="M422.528 197.569C421.549 198.188 420.43 198.614 419.414 199.129C421.385 196.598 422.117 197.778 422.528 197.569Z" fill="#C4D093" />
	<path d="M404.861 194.97C403.51 196.165 404.644 200.951 403.562 204.318C404.07 204.46 405.608 197.337 411.095 198.084C411.006 200.204 412.133 202.026 412.133 202.243C412.141 206.484 405.175 208.507 401.225 210.038C398.522 205.088 397.768 202.952 396.551 197.569C399.112 195.665 402.076 195.74 404.861 194.97Z" fill="#558F63" />
	<path d="M412.649 192.372C411.992 194.493 411.193 195.702 411.088 198.084C405.6 197.337 404.062 204.46 403.555 204.318C404.637 200.944 403.502 196.165 404.854 194.97C408.371 194 408.99 194.44 412.649 192.372Z" fill="#93B36B" />
	<path d="M419.405 199.129C415.851 203.699 421.675 201.496 426.163 210.822C421.033 210.672 420.436 212.24 415.769 210.045C414.418 209.411 412.409 207.178 410.834 206.409C409.871 206.372 407.967 208.515 406.936 209.007C405.697 209.605 402.464 210.105 402.001 210.568C401.583 210.986 402.494 210.807 401.225 212.644C399.925 211.755 400.157 211.785 399.664 210.568C401.441 210.807 401.142 210.075 401.225 210.045C405.182 208.515 412.141 206.491 412.133 202.25C413.985 203.318 415.127 201.302 419.405 199.137V199.129Z" fill="#C4D093" />
	<path d="M416.029 201.728C417.313 201.533 423.629 207.656 423.562 208.223C423.062 212.434 411.825 208.746 412.131 205.625C412.161 205.349 415.752 201.772 416.029 201.728Z" fill="#478253" />
	<path d="M89.4996 361.226C88.1855 371.119 85.7888 385.97 82.7424 394.997C82.2945 395.042 81.0849 396.259 80.4054 396.557C74.6936 396.177 53.4665 399.223 50.5321 394.997C49.4346 393.421 45.6864 366.311 44.8203 361.226H89.4996Z" fill="#D85A4C" />
	<path d="M89.4989 359.666L44.297 358.628C44.2298 358.225 42.5275 355.91 42.7365 350.571C43.961 348.906 44.6405 349.414 45.3349 349.272C45.9471 349.145 54.7127 349.354 57.8038 349.272C60.895 349.19 64.0607 349.22 67.1518 349.272C67.4953 349.272 67.8462 349.272 68.1897 349.272C75.3799 349.399 82.5327 349.81 89.7528 349.795C92.0674 354.066 89.5587 359.158 89.4915 359.666H89.4989Z" fill="#F27F32" />
	<path d="M89.4988 359.666C89.4316 360.166 89.566 360.726 89.4988 361.226H44.8195C44.6702 360.345 44.4537 359.524 44.2969 358.628L89.4988 359.666Z" fill="#9F2429" />
	<path d="M44.3048 316.024C41.4974 316.368 39.1604 318.085 36.2485 318.1L37.5477 321.213C33.2246 318.13 31.1041 314.322 28.7148 309.782L39.362 305.624C45.1336 312.829 50.5766 314.718 44.2973 316.017L44.3048 316.024Z" fill="#7FA34C" />
	<path d="M47.42 292.124C49.3762 293.744 50.9441 295.417 52.6166 297.321L47.6813 312.903C44.0899 311.141 41.3722 305.691 39.625 303.555C43.6793 301.838 43.9779 293.379 47.42 292.124Z" fill="#7FA34C" />
	<path d="M45.8573 291.086L39.6228 303.555C38.0847 301.659 36.5093 299.718 34.9488 297.843L40.1454 287.711C37.0618 290.519 35.6656 297.769 34.4336 289.011C34.4784 287.54 34.3963 286.263 34.9562 284.852C39.1972 285.128 42.699 288.705 45.8647 291.086H45.8573Z" fill="#7FA34C" />
	<path d="M28.2026 308.752C26.5973 305.325 24.9397 302.913 24.5664 298.881C27.3962 297.403 31.9507 299.591 32.8766 297.321C34.2803 299.023 37.5506 301.636 38.5884 304.854L28.1951 308.752H28.2026Z" fill="#7FA34C" />
	<path d="M33.9121 295.76C34.0091 295.872 32.934 295.409 34.9499 297.836C36.5104 299.71 38.0858 301.659 39.6239 303.548C41.3636 305.683 44.0814 311.134 47.6802 312.896L52.6155 297.313C53.0934 297.858 53.6534 298.209 54.176 298.874C52.0406 302.271 47.165 312.791 49.502 316.539C48.9794 316.248 48.5687 315.979 48.2029 315.502C44.2233 316.972 44.4995 315.994 44.3054 316.024C50.5847 314.725 45.1416 312.836 39.3701 305.631L28.7229 309.79C28.5213 309.409 28.3869 309.148 28.2002 308.752L38.5935 304.854C37.5557 301.636 34.2854 299.023 32.8817 297.321C30.6716 294.648 28.245 291.796 25.6094 289.526C26.0499 288.563 26.6024 288.54 26.6472 288.488C28.4989 292.363 33.2252 294.969 33.9195 295.76H33.9121Z" fill="#C4D093" />
	<path d="M34.9504 284.852C34.3905 286.263 34.4726 287.54 34.4278 289.011C34.3606 291.288 34.719 293.55 33.9051 295.768C33.2108 294.969 28.4845 292.371 26.6328 288.495C28.8354 285.793 31.4412 284.628 34.943 284.859L34.9504 284.852Z" fill="#639659" />
	<path d="M32.8735 297.321C31.9477 299.591 27.3857 297.395 24.5633 298.881C24.2871 295.917 24.3319 292.303 25.6012 289.533C28.2368 291.803 30.6634 294.655 32.8735 297.328V297.321Z" fill="#639659" />
	<path d="M47.42 292.124C43.9779 293.371 43.6793 301.831 39.625 303.555L45.8595 291.086C46.3597 291.467 46.8227 291.631 47.42 292.124Z" fill="#C4D093" />
	<path d="M49.503 316.547C50.9141 317.346 54.0202 322.154 56.7753 324.857C53.2287 328.553 59.5005 334.959 60.4115 336.803C61.0162 338.028 62.9277 341.052 63.0098 342.261C63.622 351.176 59.3363 340.738 57.8131 349.272C54.722 349.354 45.9564 349.145 45.3441 349.272C42.4845 346.935 39.483 344.71 36.5113 342.515C37.243 341.067 39.3187 340.843 40.6701 340.44C40.7373 340.417 40.7373 341.425 41.9693 340.962C43.8135 340.26 46.9718 337.311 48.7264 337.326C50.7573 337.348 65.4812 345.815 49.503 336.55C49.7568 325.663 48.6593 323.02 48.2038 335.773C38.8633 333.57 42.5144 328.964 39.6323 327.978C39.3934 326.358 39.0649 324.7 39.1097 323.043L37.5492 321.744V321.221L36.25 318.107C39.1545 318.085 41.4989 316.368 44.3063 316.032C44.5004 316.009 44.2167 316.98 48.2038 315.509C48.5697 315.987 48.9803 316.256 49.503 316.547Z" fill="#7FA34C" />
	<path d="M37.549 321.736L39.1094 323.035C39.0572 324.693 39.3857 326.35 39.6321 327.971C39.7441 328.717 40.8566 330.688 40.4086 331.607C36.5186 333.488 24.4752 314.815 31.8371 326.933H22.4891C22.4667 326.53 21.5857 325.843 21.9665 325.111C23.624 321.96 34.1069 320.168 37.549 321.736Z" fill="#7FA34C" />
	<path d="M40.6699 340.44C39.3184 340.85 37.2428 341.067 36.511 342.515C34.1666 340.783 32.7853 340.163 29.7539 337.319C37.1905 334.541 40.192 331.226 46.8969 336.542L40.6624 340.44H40.6699Z" fill="#7FA34C" />
	<path d="M32.8749 328.493C34.5175 330.024 37.7057 330.838 39.632 332.391L28.7236 336.288C25.8714 333.391 24.5498 332.421 23.0117 328.493H32.8824H32.8749Z" fill="#7FA34C" />
	<path d="M39.6233 327.971C42.5129 328.956 38.8543 333.563 48.1948 335.766C48.6503 323.013 49.7479 325.663 49.494 336.542C65.4722 345.815 50.7484 337.341 48.7175 337.319C46.9629 337.304 43.8046 340.253 41.9603 340.955C40.7284 341.418 40.7284 340.417 40.6612 340.432L46.8957 336.535C40.1908 331.219 37.1893 334.541 29.7527 337.311C29.3644 336.945 29.0807 336.639 28.7148 336.273L39.6233 332.376C37.7045 330.83 34.5088 330.009 32.8662 328.478C32.4779 328.112 32.4929 326.948 31.8284 326.918C24.4664 314.8 36.5098 333.481 40.3998 331.592C40.8404 330.673 39.7353 328.702 39.6233 327.956V327.971Z" fill="#B9C76D" />
	<path d="M31.8359 326.933C32.5005 326.963 32.4855 328.127 32.8738 328.493H23.0031C22.7269 327.784 22.5327 328.06 22.4805 326.933H31.8285H31.8359Z" fill="#C4D093" />
	<path d="M65.0863 338.886L60.4123 336.811C59.5014 334.967 53.2296 328.553 56.7761 324.865C58.0006 326.067 64.1679 329.419 64.5711 330.322L65.0938 338.894L65.0863 338.886Z" fill="#93B36B" />
	<path d="M65.0848 338.887L67.1605 349.28C64.0619 349.228 60.9036 349.198 57.8125 349.28C59.3357 340.746 63.6214 351.184 63.0092 342.269C62.927 341.059 61.0156 338.043 60.4108 336.811L65.0848 338.887Z" fill="white" />
	<path d="M34.9495 297.843C32.9336 295.409 34.0087 295.88 33.9117 295.768C34.7255 293.558 34.3597 291.288 34.4343 289.011C35.6663 297.769 37.0625 290.519 40.1462 287.711L34.9495 297.843Z" fill="#B9C76D" />
	<path d="M67.6831 337.326C67.6234 339.155 68.7359 344.867 68.2058 349.272C67.8623 349.272 67.5114 349.272 67.168 349.272L65.0923 338.879L64.5696 330.307C64.1664 329.404 57.9991 326.052 56.7747 324.85C54.0195 322.147 50.9135 317.338 49.5023 316.539C47.1653 312.791 52.0409 302.278 54.1763 298.874C61.8593 308.67 62.3148 316.233 63.2705 316.017C62.1356 307.385 64.5547 300.912 67.6831 293.154L75.9933 302.249C74.3134 308.349 72.7529 320.28 69.7588 320.429C73.2382 320.265 68.0415 326.873 67.6831 337.311V337.326Z" fill="#7FA34C" />
	<path d="M68.1992 292.647C69.6328 289.302 69.4909 288.227 71.8354 284.852C80.4442 292.617 83.2815 289.765 75.7329 301.479L68.1992 292.647Z" fill="#7FA34C" />
	<path d="M81.7113 287.45C80.6361 294.879 75.7456 285.203 72.3633 284.337C74.2822 281.753 75.8576 279.132 79.1204 278.102C79.9268 281.275 80.8825 284.314 81.7188 287.45H81.7113Z" fill="#7FA34C" />
	<path d="M85.3505 297.843L78.0781 300.703L82.7521 289.533C83.4988 292.281 84.5739 295.006 85.3505 297.843Z" fill="#7FA34C" />
	<path d="M81.7134 287.45C81.7433 287.562 82.3107 287.891 82.7513 289.526L78.0772 300.696L85.3496 297.836C85.5512 298.56 85.6856 299.202 85.8722 299.912C84.4984 297.395 82.5198 301.592 77.5621 301.733L75.2251 309.79C90.8524 306.96 90.4417 308.035 75.2251 310.828C68.9383 325.708 75.0832 317.682 87.9554 315.763L72.3729 320.437L68.2141 337.319H67.6914C68.0498 326.88 73.2539 320.273 69.7671 320.437C72.7611 320.28 74.3216 308.349 76.0016 302.256L67.6914 293.162C67.9826 292.43 68.1991 292.677 68.2141 292.639L75.7477 301.472C83.2963 289.765 80.459 292.609 71.8502 284.844C72.2459 284.277 72.3505 284.352 72.3729 284.322C75.7552 285.195 80.6532 294.872 81.7209 287.435L81.7134 287.45Z" fill="#B9C76D" />
	<path d="M85.8652 299.919C86.4401 302.166 88.904 311.253 88.9787 311.865C89.6208 316.681 87.5526 316.562 88.2022 320.176C90.3376 319.571 95.3775 319.317 97.2963 319.653C97.1769 322.109 93.9738 324.991 94.1828 327.448C90.5243 331.487 74.7551 334.295 71.8432 339.917L68.207 337.318L72.3658 320.437L87.9483 315.763C75.0762 317.682 68.9313 325.708 75.218 310.828C90.4347 308.035 90.8453 306.96 75.218 309.79L77.555 301.733C82.5202 301.591 84.4914 297.395 85.8652 299.912V299.919Z" fill="#7FA34C" />
	<path d="M94.1817 327.455C93.9726 324.999 97.1757 322.117 97.2952 319.66C97.4595 319.69 97.6536 319.623 97.8178 319.66C97.8178 321.527 95.2718 326.253 94.1817 327.455Z" fill="#B9C76D" />
	<path d="M81.9673 322.781L80.9294 333.175C80.3993 329.68 80.362 325.962 81.9673 322.781Z" fill="#ABB36C" />
	<path d="M71.844 340.44C73.7032 338.886 78.631 334.765 80.9382 335.243C81.8192 335.43 96.0204 347.958 81.7147 334.982C84.7087 332.398 86.0826 331.734 89.5097 333.16C90.555 335.512 90.8611 334.496 91.0702 334.72C92.9666 336.759 92.9741 336.169 93.1458 336.281C93.1981 336.318 92.892 337.968 94.1837 337.057C93.6237 336.296 93.1832 336.325 93.1458 336.281C91.4211 334.175 91.1747 334.795 91.0702 334.72C90.9806 334.653 90.7192 333.667 89.5097 333.16C89.2558 332.592 88.9198 332.256 88.4718 331.861C93.6013 328.672 99.9104 329.583 105.615 328.486C106.332 330.935 107.257 330.375 103.539 335.497C88.1956 356.597 74.9277 342.956 73.1432 343.03C72.0606 343.075 68.6334 348.13 71.844 340.432V340.44Z" fill="#7FA34C" />
	<path d="M105.092 327.455L94.4449 329.016C93.9895 328.829 94.2284 327.941 94.1836 327.455C95.2737 326.253 97.8198 321.527 97.8198 319.66C100.328 320.288 104.047 325.215 105.092 327.455Z" fill="#7FA34C" />
	<path d="M105.093 327.455C105.115 327.508 105.205 327.112 105.615 328.493C99.9109 329.591 93.6017 328.687 88.4722 331.868C88.9202 332.264 89.2562 332.6 89.5101 333.167C86.083 331.734 84.7092 332.406 81.7151 334.989C96.0134 347.966 81.8196 335.43 80.9386 335.25C78.6314 334.772 73.7036 338.894 71.8444 340.447C71.9042 340.298 71.7772 340.059 71.8444 339.924C74.7564 334.302 90.5255 331.495 94.1841 327.455C94.2214 327.933 93.9899 328.822 94.4454 329.016L105.093 327.455Z" fill="#B9C76D" />
	<path d="M93.1382 336.288C92.9664 336.176 92.959 336.773 91.0625 334.728C91.167 334.802 91.4209 334.175 93.1382 336.288Z" fill="#B9C76D" />
	<path d="M91.0644 334.728C90.8553 334.504 90.5492 335.519 89.5039 333.167C90.7135 333.675 90.9748 334.661 91.0644 334.728Z" fill="#B9C76D" />
	<path d="M93.1367 336.288C93.1815 336.34 93.622 336.311 94.1746 337.065C92.8829 337.976 93.189 336.318 93.1367 336.288Z" fill="#B9C76D" />
	<path d="M466.942 166.396C467.54 166.456 471.325 174.079 469.541 174.706C469.346 174.774 466.076 173.064 466.166 172.369C466.24 171.772 471.235 167.173 465.128 170.294C464.799 169.674 466.323 166.337 466.95 166.396H466.942Z" fill="#ECE9D0" />
	<path d="M455.25 180.426C455.511 180.329 460.215 176.073 458.886 180.164C458.095 182.599 455.444 180.336 455.25 180.426Z" fill="#C0CCDA" />
	<path d="M463.309 179.903C464.13 179.799 465.646 180.038 465.646 180.68C465.646 182.77 458.231 180.56 463.309 179.903Z" fill="#B6D0CF" />
	<path d="M455.251 180.426C455.154 180.471 454.609 182.307 454.99 182.501C455.819 182.934 472.864 182.927 473.693 182.501C474.208 182.24 474.768 179.664 474.47 179.127C472.581 175.707 468.288 184.286 467.713 181.202C467.653 180.874 471.64 177.096 472.125 176.267C476.03 181.919 485.99 181.74 486.931 185.361C487.588 187.877 487.484 234.774 486.931 237.313C485.311 244.809 461.926 239.508 454.982 241.21C452.742 241.755 446.157 250.26 449.524 241.987C449.076 240.852 446.777 243.301 445.888 236.79C445.545 234.266 445.343 188.363 445.888 185.876C446.762 181.919 452.152 181.598 455.236 180.418L455.251 180.426Z" fill="#C0CCDA" />
	<path d="M476.554 206.924C476.554 207.23 478.144 210.777 476.292 212.636H453.953C453.034 209.358 454.207 207.208 454.214 206.924H476.554Z" fill="white" />
	<path d="M476.554 206.924H454.215C454.215 206.618 450.564 204.468 455.514 203.288C458.232 202.638 471.589 203.766 476.816 203.288C479.101 207.141 476.554 206.7 476.554 206.924Z" fill="#79B2BD" />
	<path d="M473.956 221.469H458.889C453.259 213.121 468.439 217.213 473.695 216.272C474.457 217.878 474.695 219.834 473.956 221.469Z" fill="white" />
	<path d="M473.953 221.469C473.931 221.521 475.036 221.544 474.215 222.507C467.323 222.216 455.541 223.313 458.886 221.469H473.953Z" fill="#93B9CD" />
	<path d="M461.488 356.029C460.697 362.846 456.889 391.308 453.178 394.997C452.827 395.348 450.027 397.028 449.803 397.072C448.609 397.319 426.575 397.326 425.388 397.072C423.686 396.707 421.894 394.862 420.975 393.436C418.385 389.442 414.689 363.257 413.703 356.552L461.503 356.029H461.488Z" fill="#4B8CB2" />
	<path d="M452.139 340.439C466.676 341.022 462.906 343.769 461.487 356.022L413.687 356.545C411.567 342.097 407.154 341.612 420.959 340.962C422.333 340.895 423.737 340.999 425.118 340.962C426.149 340.94 427.201 340.984 428.232 340.962C429.441 340.94 430.666 340.984 431.868 340.962C434.279 340.917 436.728 340.947 439.14 340.962C441.037 340.969 442.956 340.932 444.852 340.962C449.272 341.029 449.787 340.439 450.049 340.439C450.765 340.454 451.46 340.409 452.124 340.439H452.139Z" fill="#EE6636" />
	<path d="M451.099 326.417C452.451 327.119 453.257 328.433 454.213 329.531C446.358 335.355 449.845 331.965 446.418 331.091C446.694 328.956 448.195 324.902 451.092 326.417H451.099Z" fill="#7FA34C" />
	<path d="M440.185 317.585C440.088 318.07 440.245 318.645 440.185 319.145C440.424 319.892 439.782 320.138 439.662 320.706C439.065 323.632 435.466 324.177 439.14 340.97C436.728 340.955 434.279 340.925 431.867 340.97C433.868 332.689 435.75 332.988 432.905 324.864C432.815 324.603 432.995 324.058 432.905 323.827C440.177 324.163 436.347 320.332 440.177 317.592L440.185 317.585Z" fill="white" />
	<path d="M492.144 311.35L480.452 317.062L479.675 316.285L483.311 308.49L482.535 308.229C481.019 309.946 478.794 317.196 478.376 317.577C478.107 317.831 471.522 320.37 471.88 318.615L473.179 308.744C470.82 311.036 471.566 319.205 470.066 320.691C469.946 320.81 466.997 321.721 466.691 321.467C466.056 320.944 461.293 304.892 466.168 321.99L460.195 325.365C463.951 307.841 461.599 311.44 458.896 326.141C457.671 327.776 455.782 328.359 454.222 329.516C453.266 328.411 452.452 327.104 451.108 326.402C451.108 325.223 450.123 324.521 450.071 323.289C449.481 310.111 481.519 302.002 492.151 311.343L492.144 311.35Z" fill="#478253" />
	<path d="M485.91 321.221C487.321 322.378 486.47 323.207 484.35 325.895C480.803 330.404 478.182 330.531 473.441 332.652C472.724 332.674 470.201 330.031 469.805 329.538L466.691 323.304C468.715 322.281 470.641 320.847 472.926 320.19C478.04 325.954 482.744 328.889 475.263 319.668C481.572 316.509 482.393 320.034 485.91 321.228V321.221Z" fill="#478253" />
	<path d="M466.684 323.296C466.886 325.79 468.312 327.664 469.798 329.531C470.194 330.031 472.717 332.674 473.434 332.644C472.277 333.16 465.833 336.773 465.378 336.803C464.878 336.833 458.262 333.13 456.03 334.205C455.126 333.697 456.5 332.921 456.806 332.129C459.039 326.41 461.809 325.768 466.677 323.296H466.684Z" fill="#7FA34C" />
	<path d="M493.181 312.911C494.197 317.764 488.477 323.289 484.348 325.902C486.469 323.214 487.32 322.385 485.909 321.228C491.255 323.043 486.7 320.198 481.75 317.853L493.181 312.918V312.911Z" fill="#31745B" />
	<path d="M471.881 318.622L471.358 319.399C472.067 320.459 472.859 320.116 472.918 320.175C470.634 320.84 468.707 322.266 466.684 323.289C461.816 325.76 459.046 326.402 456.813 332.122C455.626 331.592 455.014 330.442 454.215 329.523C455.775 328.366 457.664 327.776 458.889 326.149C461.592 311.44 463.944 307.841 460.188 325.372L466.161 321.997C461.278 304.899 466.042 320.959 466.684 321.475C466.997 321.728 469.939 320.818 470.059 320.698C471.559 319.212 470.82 311.044 473.172 308.752L471.873 318.622H471.881Z" fill="#ABB36C" />
	<path d="M492.142 311.35C492.59 311.746 493.539 311.843 493.703 312.127C493.74 312.194 493.098 312.492 493.18 312.903L481.749 317.838C486.699 320.183 491.254 323.028 485.908 321.213C482.384 320.019 481.57 316.494 475.261 319.653C482.742 328.866 478.038 325.932 472.924 320.175C472.864 320.108 472.08 320.452 471.363 319.399L471.886 318.622C471.528 320.377 478.113 317.831 478.382 317.585C478.792 317.204 481.017 309.946 482.541 308.237L483.317 308.498L479.681 316.293L480.457 317.069L492.15 311.358L492.142 311.35Z" fill="#D7DEB6" />
	<path d="M469.805 329.531C468.312 327.664 466.886 325.79 466.691 323.296L469.805 329.531Z" fill="#ABB36C" />
	<path d="M466.16 294.207C467.123 294.565 468.131 294.872 468.758 295.768C463.584 301.771 460.717 303.115 456.812 307.199C455.289 306.377 452.773 306.504 453.176 304.085C454.527 302.51 455.894 300.143 457.073 298.373C467.377 305.287 458.246 298.814 458.373 297.597C458.402 297.283 462.479 293.244 462.785 293.184C463.42 293.057 465.316 293.908 466.16 294.222V294.207Z" fill="#478253" />
	<path d="M451.616 304.593C451.332 304.854 450.638 305.593 450.578 305.631C450.026 305.967 449.361 306.646 449.279 306.669C448.047 306.99 447.442 306.288 446.942 306.146C444.934 294.64 446.233 299.695 449.018 295.499C450.011 293.998 450.646 292.012 451.616 290.563C451.698 290.444 453.199 288.816 453.692 288.488C452.587 296.059 459 297.746 451.616 304.593Z" fill="#3F744C" />
	<path d="M456.813 307.191C454.095 310.036 449.279 315.397 448.503 319.137C446.285 319.735 445.807 317.704 444.344 316.539C445.598 312.836 448.906 309.17 450.578 305.631C450.638 305.593 451.332 304.854 451.616 304.593C451.489 305.519 452.945 304.339 453.177 304.07C452.773 306.489 455.29 306.37 456.813 307.184V307.191Z" fill="#618246" />
	<path d="M475.513 279.655C469.04 288.309 465.501 287.009 473.953 289.526C473.438 290.496 472.952 290.504 472.915 290.563C468.039 286.024 461.424 291.586 466.158 294.2C465.314 293.886 463.418 293.035 462.783 293.162C462.477 293.221 458.4 297.268 458.37 297.574C458.243 298.799 467.375 305.265 457.071 298.351C455.892 300.12 454.525 302.495 453.174 304.063C452.95 304.324 451.486 305.511 451.613 304.585C458.998 297.739 452.584 296.051 453.689 288.48H454.212C453.704 291.071 455.22 295.409 456.549 297.828C463.619 291.071 466.419 291.698 464.082 280.685C465.075 280.178 465.419 280.267 465.643 280.163L465.904 288.473C466.412 288.883 474.662 279.685 474.998 279.125C474.946 279.52 475.125 279.7 475.521 279.647L475.513 279.655Z" fill="#C4D093" />
	<path d="M474.992 279.14C474.664 279.7 466.413 288.898 465.898 288.488L465.637 280.178C467.123 279.513 478.083 273.913 474.985 279.14H474.992Z" fill="#3F744C" />
	<path d="M473.955 289.526C465.495 287.009 469.042 288.309 475.515 279.655C479.002 279.192 475.015 287.554 473.955 289.526Z" fill="#478253" />
	<path d="M472.917 290.563C470.625 294.341 470.05 294.267 468.758 295.76C468.131 294.872 467.123 294.558 466.16 294.2C461.419 291.586 468.034 286.024 472.917 290.563Z" fill="#478253" />
	<path d="M444.342 316.547C443.894 317.868 443.842 317.532 443.82 317.585H443.297C443.715 315.696 443.469 310.357 445.895 306.153C446.231 306.191 446.664 306.079 446.933 306.153C447.441 306.295 448.038 306.997 449.27 306.676C449.352 306.654 450.017 305.974 450.569 305.638C448.897 309.177 445.589 312.843 444.335 316.547H444.342Z" fill="white" />
	<path d="M454.214 288.488C454.714 285.957 461.785 281.872 464.084 280.693C466.421 291.706 463.621 291.079 456.551 297.836C455.222 295.409 453.706 291.071 454.214 288.488Z" fill="#478253" />
	<path d="M456.552 286.412C458.687 295.992 455.715 298.209 456.29 288.749C456.35 287.816 456.111 286.412 456.552 286.412Z" fill="#558F63" />
	<path d="M445.38 331.091L444.858 340.962C442.961 340.932 441.042 340.97 439.146 340.962C435.472 324.17 439.071 323.625 439.668 320.698C442.08 322.072 442.61 330.345 441.229 331.868C441.468 332.831 442.916 330.763 445.388 331.091H445.38Z" fill="#7FA34C" />
	<path d="M448.5 319.145C448.149 320.997 449.142 322.162 449.022 322.781C447.088 332.592 439.428 332.995 443.826 317.585C443.841 317.532 443.9 317.868 444.348 316.547C445.812 317.712 446.289 319.742 448.507 319.145H448.5Z" fill="#7FA34C" />
	<path d="M449.016 322.781L450.053 323.304C450.106 324.536 451.091 325.238 451.091 326.417C448.194 324.902 446.686 328.956 446.417 331.091C446.134 331.017 445.708 331.136 445.379 331.091C442.916 330.77 441.46 332.839 441.221 331.868C442.609 330.345 442.079 322.072 439.66 320.698C439.78 320.131 440.414 319.884 440.183 319.138C442.303 323.199 442.46 321.355 443.296 317.577H443.819C439.421 332.988 447.082 332.585 449.016 322.774V322.781Z" fill="#C4D093" />
	<path d="M450.576 290.048C444.513 306.519 442.4 287.107 442.781 286.151C442.946 285.748 448.18 283.261 449.016 282.253C452.144 281.955 449.919 287.935 450.576 290.048Z" fill="#3F744C" />
	<path d="M448.501 281.738C441.893 288.002 439.287 283.164 441.229 278.625C441.654 277.624 442.222 277.647 442.266 277.587C443.185 276.31 446.881 274.578 446.425 272.39C447.919 275.563 451.465 278.931 448.501 281.738Z" fill="#478253" />
	<path d="M432.912 260.436L436.025 270.568C428.999 266.932 430.157 268.746 426.677 268.231C424.632 262.557 427.715 261.123 432.912 260.436Z" fill="#558F63" />
	<path d="M440.184 263.55C437.444 273.54 435.129 268.067 433.949 260.436C438.138 260.302 437.391 261.056 440.184 263.55Z" fill="#478253" />
	<path d="M433.434 299.396C431.709 299.016 429.969 298.276 428.237 297.836C423.936 290.504 423.459 278.124 425.124 269.784C426.161 269.635 429.036 274.145 429.282 274.72C430.447 277.497 438.078 299.994 436.293 300.434C435.502 299.792 434.397 299.605 433.434 299.396Z" fill="#639659" />
	<path d="M444.342 298.358L439.145 302.517C436.547 292.355 431.634 288.047 441.743 287.711C442.4 291.303 443.617 294.797 444.342 298.358Z" fill="#478253" />
	<path d="M445.902 306.153C443.475 310.35 443.722 315.696 443.304 317.585C442.467 321.363 442.303 323.207 440.19 319.145C440.25 318.645 440.093 318.07 440.19 317.585C440.407 316.487 441.228 311.664 441.228 311.35C441.228 305.377 439.264 302.965 439.152 302.517L444.349 298.358C444.879 300.942 446.432 303.331 445.909 306.153H445.902Z" fill="#478253" />
	<path d="M442.266 277.579L446.424 272.383C446.887 274.563 443.191 276.303 442.266 277.579Z" fill="#C4D093" />
	<path d="M433.95 260.436C435.13 268.067 437.444 273.547 440.185 263.55C440.797 264.095 441.192 264.55 441.745 265.11C437.78 267.746 437.556 272.189 439.147 276.28L444.859 269.269C444.971 269.433 445.247 269.135 445.896 270.307C442.096 273.958 437.444 280.603 441.222 278.617C439.281 283.164 441.894 287.995 448.495 281.731C448.442 282.134 448.622 282.291 449.017 282.253C448.181 283.254 442.947 285.74 442.783 286.151C442.395 287.107 444.515 306.519 450.578 290.048L451.616 290.571C450.645 292.019 450.01 294.006 449.017 295.506C446.232 299.71 444.926 294.648 446.942 306.153C446.673 306.079 446.24 306.191 445.904 306.153C446.426 303.331 444.873 300.949 444.343 298.358C443.619 294.789 442.402 291.303 441.745 287.711C431.635 288.047 436.548 292.355 439.147 302.517C439.259 302.965 441.222 305.377 441.222 311.35C439.572 311.925 440.341 305.362 438.624 302.779C436.996 300.33 433.032 301.099 433.427 299.404C434.391 299.613 435.488 299.799 436.287 300.442C438.071 299.994 430.441 277.497 429.276 274.727C429.03 274.152 426.155 269.642 425.117 269.792C425.341 269.053 424.736 268.806 424.595 268.231C424.527 267.948 424.624 267.529 424.595 267.193C425.252 267.955 425.685 268.082 426.67 268.231C430.15 268.754 429 266.932 436.018 270.568L432.905 260.436C433.241 260.392 433.607 260.444 433.943 260.436H433.95Z" fill="#C4D093" />
	<path d="M441.744 265.11C443.558 266.947 443.61 267.373 444.857 269.269L439.145 276.28C437.555 272.189 437.779 267.746 441.744 265.11Z" fill="#478253" />
	<path d="M446.417 272.383L442.259 277.579C442.214 277.639 441.646 277.617 441.221 278.617C437.443 280.596 442.094 273.958 445.895 270.307C446.052 270.591 446.246 272.017 446.417 272.383Z" fill="#478253" />
	<path d="M438.107 280.178C436.651 280.603 436.188 282.209 434.994 283.037C436.442 283.567 437.779 281.335 438.107 280.178C440.138 279.58 441.363 285.8 441.221 286.151C441.094 286.479 435.255 288.966 434.463 288.227C435.143 285.882 427.102 269.769 427.968 269.262C431.156 267.41 432.216 270.329 433.164 270.822C434.001 271.263 440.377 272.368 438.1 280.17L438.107 280.178Z" fill="#478253" />
	<path d="M438.11 280.178C437.774 281.327 436.445 283.567 434.996 283.037C436.198 282.216 436.654 280.611 438.11 280.178Z" fill="#C4D093" />
	<path d="M417.844 295.76C418.016 295.76 418.187 295.753 418.366 295.76C418.292 297.657 418.538 299.628 418.889 301.472C419.113 302.674 421.122 308.543 420.188 309.267C417.538 306.198 413.058 305.287 412.132 304.593C409.75 302.794 410.109 300.121 409.534 296.798C409.474 296.469 409.586 296.089 409.534 295.76C412.296 295.812 415.089 295.693 417.844 295.76Z" fill="#528375" />
	<path d="M422.528 324.857C426.246 325.305 429.225 325.365 432.921 324.857C435.766 332.98 433.884 332.682 431.883 340.962C430.674 340.984 429.449 340.94 428.247 340.962C428.344 339.633 428.225 333.637 427.47 333.167C425.044 331.674 427.239 339.715 425.133 340.962C423.76 340.999 422.348 340.895 420.975 340.962C423.132 330.554 418.668 332.428 413.18 328.493C414.568 326.709 416.592 325.798 417.854 323.819C419.31 324.782 421.311 324.715 422.528 324.857Z" fill="#7FA34C" />
	<path d="M428.238 340.962C427.208 340.984 426.155 340.94 425.125 340.962C427.231 339.715 425.035 331.674 427.462 333.167C428.224 333.63 428.336 339.626 428.238 340.962Z" fill="white" />
	<path d="M428.237 297.843C429.969 298.276 431.709 299.023 433.434 299.404C433.038 301.099 437.003 300.337 438.631 302.779C440.348 305.362 439.579 311.925 441.229 311.35C441.229 311.664 440.408 316.487 440.191 317.585C436.361 320.325 440.191 324.155 432.919 323.819C432.792 323.491 429.73 318.488 429.283 317.846C427.461 315.218 421.801 310.185 421.488 309.536C421.002 308.513 420.577 299.852 418.889 301.479C418.546 299.635 418.299 297.657 418.367 295.768C422.331 295.977 424.497 296.902 428.237 297.843Z" fill="#7FA34C" />
	<path d="M422.526 324.857C421.309 324.708 419.308 324.782 417.852 323.819C421.489 318.115 422.623 309.14 416.553 323.819L404.861 319.66C404.711 319.459 404.487 318.839 404.338 318.622C404.338 318.301 404.219 317.644 404.599 317.585C420.092 315.083 423.93 302.846 422.526 324.857Z" fill="#639659" />
	<path d="M410.573 305.116C410.155 313.321 412.604 316.718 403.301 317.062C401.994 314.986 401.681 314.844 400.188 311.865C402.457 309.274 407.288 305.549 410.581 305.108L410.573 305.116Z" fill="#478253" />
	<path d="M399.141 310.827C397.64 307.58 396.326 304.615 396.027 300.957C408.026 304.242 411.192 303.256 399.141 310.827Z" fill="#7FA34C" />
	<path d="M408.499 296.798C411.128 308.595 407.932 301.912 395.508 299.911L395.769 298.874C401.138 299.434 402.855 295.14 408.499 296.798Z" fill="#7FA34C" />
	<path d="M409.536 296.798C410.103 300.121 409.752 302.794 412.134 304.593C412.164 305.407 411.372 305.004 410.573 305.116C407.288 305.556 402.45 309.274 400.18 311.873C400.15 311.806 399.613 311.843 399.142 310.835C411.186 303.264 408.02 304.242 396.029 300.964C396.029 300.905 395.312 301.158 395.506 299.926C407.93 301.92 411.118 308.61 408.498 296.813C408.759 296.888 409.207 296.776 409.536 296.813V296.798Z" fill="#C4D093" />
	<path d="M411.609 327.455C407.122 323.991 408.257 323.961 405.375 320.183C412.013 324.103 419.091 324.596 411.609 327.455Z" fill="#7FA34C" />
	<path d="M417.847 323.819C416.585 325.798 414.562 326.709 413.173 328.493C413.098 328.441 412.889 328.441 411.613 327.455C419.094 324.596 412.016 324.095 405.378 320.183C405.356 320.153 405.244 320.19 404.855 319.66L416.548 323.819C422.618 309.14 421.483 318.115 417.847 323.819Z" fill="#C4D093" />
	<path d="M432.912 323.819C433.002 324.05 432.823 324.603 432.912 324.857C429.217 325.365 426.245 325.305 422.519 324.857C423.923 302.838 420.093 315.076 404.592 317.585C404.211 317.644 404.331 318.309 404.331 318.622C403.935 318.047 403.674 317.674 403.293 317.062C412.604 316.718 410.147 313.314 410.565 305.116C411.364 305.011 412.156 305.414 412.126 304.593C413.044 305.287 417.532 306.198 420.182 309.267C421.115 308.543 419.107 302.674 418.883 301.472C420.563 299.844 420.996 308.498 421.481 309.528C421.795 310.185 427.454 315.21 429.276 317.838C429.724 318.48 432.786 323.49 432.912 323.812V323.819Z" fill="#C4D093" />
	<path d="M423.82 313.948C429.913 318.204 434.923 325.969 423.559 324.596L423.82 313.948Z" fill="#558F63" />
	<path d="M411.87 305.631C422.517 309.543 422.279 311.432 411.348 314.464L411.87 305.631Z" fill="#558F63" />
	<path d="M335.758 312.388V314.464C332.01 314.568 329.18 319.72 328.486 323.035C326.634 331.801 328.628 383.566 326.925 398.626C323.633 396.811 323.498 398.342 322.251 393.952C322.035 393.19 321.766 392.6 321.729 392.391C321.475 390.763 321.826 388.12 321.729 386.157C321.4 379.653 321.266 327.635 321.729 324.596C322.804 317.517 328.904 313.15 335.758 312.388Z" fill="#F9A41B" />
	<path d="M353.424 311.865C359.599 311.746 366.408 312.209 372.65 312.388C375.95 312.478 375.607 311.865 375.763 311.865C379.34 311.985 384.88 311.888 388.232 312.903C389.225 313.209 394.512 317.323 396.027 318.615C396.214 320.273 397.879 323.125 398.103 325.111C398.476 328.411 398.245 331.973 398.626 335.243C396.027 340.044 395.393 353.573 394.99 354.723C394.848 355.126 394.288 354.984 393.952 354.984C392.682 340.955 393.989 317.428 382.782 315.502C379.825 314.994 340.992 315.367 338.364 316.024C338.685 314.053 337.789 314.411 335.766 314.464V312.388C340.253 311.888 345.741 311.977 350.31 311.865C351.273 311.843 352.378 311.888 353.424 311.865Z" fill="#F27F32" />
	<path d="M335.759 314.464C337.782 314.404 338.678 314.053 338.357 316.024C335.049 316.845 332.727 319.197 332.122 322.52C330.988 328.71 332.742 394.997 331.6 398.633C330.241 402.971 327.807 399.118 326.926 398.633C328.621 383.573 326.635 331.808 328.486 323.043C329.188 319.728 332.01 314.576 335.759 314.471V314.464Z" fill="#F27F32" />
	<path d="M393.95 354.992C394.973 366.326 395.444 382.662 396.549 390.838C389.448 408.444 385.23 399.41 381.743 398.633C377.629 397.722 341.588 399.32 331.605 398.633C332.74 395.004 330.993 328.71 332.128 322.52C332.733 319.197 335.055 316.845 338.363 316.024C340.998 315.367 379.824 314.994 382.781 315.501C393.988 317.428 392.681 340.955 393.95 354.984V354.992Z" fill="#F9A41B" />
	<path d="M381.48 356.029C380.912 359.464 381.898 367.408 381.48 371.873L380.181 373.172H346.932C345.357 372.478 346.022 357.799 346.156 355.507L381.487 356.029H381.48Z" fill="#EE6636" />
	<path d="M380.96 354.469C377.817 355.552 351.43 355.44 346.152 353.946C346.174 353.827 345.935 351.774 345.629 351.609C350.139 349.347 346.473 345.987 350.042 343.553C355.238 343.986 378.675 342.971 380.176 343.553C382.685 344.524 380.676 351.893 380.953 354.461L380.96 354.469Z" fill="#F28521" />
	<path d="M381.48 356.029L346.149 355.507C346.149 355.432 345.858 355.693 346.149 353.946C351.428 355.432 377.814 355.552 380.958 354.469C381.002 354.454 380.801 355.148 381.734 354.992L381.995 353.17H383.033C383.623 355.372 381.585 355.357 381.473 356.029H381.48Z" fill="#BC392C" />
</svg>
